<svg width="36" height="36" viewBox="0 0 36 36" fill="none" xmlns="http://www.w3.org/2000/svg">
<path d="M33.7693 13.7406C33.7451 13.7127 33.7245 13.6855 33.6959 13.6583L32.4343 12.4409C33.4806 12.2036 34.6069 11.327 34.6069 10.4277C34.6069 9.38002 33.1529 9.00825 31.9119 9.00825C30.6144 9.00825 30.4637 9.89727 30.4483 10.5255L27.1934 7.38745C26.5322 6.73281 25.278 6.21777 24.3404 6.21777H18.0011H17.9996H11.6588C10.722 6.21777 9.46858 6.73281 8.80658 7.38745L5.55242 10.5255C5.53552 9.89727 5.3849 9.00825 4.08882 9.00825C2.84638 9.00825 1.39306 9.38002 1.39306 10.4277C1.39306 11.327 2.52015 12.2036 3.56642 12.4409L2.30488 13.6583C2.27622 13.6855 2.25638 13.7127 2.2314 13.7406C0.881687 14.8941 0 17.0336 0 18.5861V23.1994C0 24.3192 0.441578 25.3353 1.15501 26.0928V27.8818C1.15501 28.9281 2.03082 29.7811 3.10795 29.7811H5.4694C6.54652 29.7811 7.4216 28.9296 7.4216 27.8818V27.4241H17.9996H18.0011H28.5784V27.8818C28.5784 28.9296 29.4527 29.7811 30.5313 29.7811H32.8921C33.9699 29.7811 34.8443 28.9281 34.8443 27.8818V26.0928C35.5584 25.3353 35.9993 24.3192 35.9993 23.1994V18.5861C36.0007 17.0336 35.119 14.8941 33.7693 13.7406ZM10.002 8.78196C10.4597 8.40064 11.2599 8.11116 11.6588 8.11116H17.9996H18.0011H24.3419C24.7409 8.11116 25.541 8.40064 25.9987 8.78196L30.2668 12.9185H18.0011H17.9996H5.73464L10.002 8.78196ZM1.46433 17.8881C1.46433 16.7522 2.35337 15.8302 3.45107 15.8302C4.54803 15.8302 8.13282 17.9344 8.13282 19.0703C8.13282 20.2062 4.54803 19.9432 3.45107 19.9432C2.35337 19.9432 1.46433 19.0247 1.46433 17.8881ZM7.42233 25.4014H7.04394H6.66555L4.42092 25.4051C3.79787 25.2111 3.35849 24.9848 3.0477 24.7416C2.89046 24.6189 2.76997 24.4911 2.67592 24.364C2.58114 24.2354 2.51207 24.109 2.46725 23.9827C2.18805 23.1936 2.76482 22.4684 2.76482 22.4684H6.59575L9.1497 25.3999L7.42233 25.4014ZM23.5087 25.4029H18.0011H17.9996H12.492C11.3436 25.4029 10.4113 24.4705 10.4113 23.3229H17.9996H18.0011H25.5895C25.5895 24.472 24.6571 25.4029 23.5087 25.4029ZM23.9922 21.9034H18.0011H17.9996H12.0086C10.7595 21.9034 9.74558 20.3634 9.74558 18.4642H17.9996H18.0011H26.2552C26.2552 20.3641 25.2412 21.9034 23.9922 21.9034ZM33.5342 23.9841C33.4887 24.1105 33.4196 24.2369 33.3248 24.3647C33.2315 24.4918 33.111 24.6197 32.953 24.7424C32.643 24.9856 32.2029 25.2133 31.5798 25.4058L29.3352 25.4021H28.9568H28.5784H26.8496L29.405 22.4706H33.2352C33.2352 22.4699 33.8127 23.1936 33.5342 23.9841ZM32.5497 19.9432C31.4534 19.9432 27.8686 20.2047 27.8686 19.0703C27.8686 17.9359 31.4534 15.8302 32.5497 15.8302C33.6474 15.8302 34.5364 16.7522 34.5364 17.8881C34.5364 19.0233 33.6474 19.9432 32.5497 19.9432Z" fill="#9E9E9E"/>
</svg>
