<svg width="22" height="22" viewBox="0 0 22 22" fill="none" xmlns="http://www.w3.org/2000/svg">
<g clip-path="url(#clip0)">
<path d="M21.9185 10.7395C21.7453 10.4873 17.5817 4.58301 10.9999 4.58301C5.35226 4.58301 0.319682 10.4534 0.107928 10.7037C-0.0359761 10.8742 -0.0359761 11.1245 0.107928 11.2959C0.319682 11.5461 5.35226 17.4166 10.9999 17.4166C16.6476 17.4166 21.6802 11.5461 21.8919 11.2959C22.0249 11.1382 22.0368 10.91 21.9185 10.7395ZM10.9999 16.4999C6.47247 16.4999 2.16771 12.1823 1.07414 10.9998C2.16591 9.81638 6.46607 5.49972 10.9999 5.49972C16.2974 5.49972 20.0366 9.81088 20.9496 10.9751C19.8954 12.12 15.5659 16.4999 10.9999 16.4999Z" fill="#28282C"/>
<path d="M11.0007 7.33301C8.97851 7.33301 7.33398 8.97754 7.33398 10.9997C7.33398 13.0219 8.97851 14.6664 11.0007 14.6664C13.0229 14.6664 14.6674 13.0219 14.6674 10.9997C14.6674 8.97754 13.0229 7.33301 11.0007 7.33301ZM11.0007 13.7498C9.48452 13.7498 8.25065 12.5159 8.25065 10.9998C8.25065 9.48359 9.48452 8.24972 11.0007 8.24972C12.5169 8.24972 13.7507 9.48359 13.7507 10.9998C13.7507 12.5159 12.5169 13.7498 11.0007 13.7498Z" fill="#28282C"/>
</g>
<defs>
<clipPath id="clip0">
<rect width="22" height="22" fill="white"/>
</clipPath>
</defs>
</svg>
