<svg width="57" height="57" viewBox="0 0 57 57" fill="none" xmlns="http://www.w3.org/2000/svg">
<circle cx="28.5004" cy="28.5004" r="22.6977" stroke="#28282C"/>
<circle cx="28.5002" cy="28.5002" r="25.3488" stroke="#444444" stroke-opacity="0.7"/>
<circle cx="28.5" cy="28.5" r="28" stroke="#444444" stroke-opacity="0.4"/>
<circle cx="28.5" cy="28.5" r="15.2442" fill="#28282C"/>
<path d="M24.2003 25.118C24.2723 24.002 24.6983 23.132 25.4783 22.508C26.2703 21.884 27.2783 21.572 28.5023 21.572C29.3423 21.572 30.0683 21.722 30.6803 22.022C31.2923 22.322 31.7543 22.73 32.0663 23.246C32.3783 23.762 32.5343 24.344 32.5343 24.992C32.5343 25.736 32.3363 26.372 31.9403 26.9C31.5443 27.428 31.0703 27.782 30.5183 27.962V28.034C31.2263 28.25 31.7783 28.646 32.1743 29.222C32.5703 29.786 32.7683 30.512 32.7683 31.4C32.7683 32.108 32.6063 32.738 32.2823 33.29C31.9583 33.842 31.4783 34.28 30.8423 34.604C30.2063 34.916 29.4443 35.072 28.5563 35.072C27.2603 35.072 26.1923 34.742 25.3523 34.082C24.5243 33.41 24.0803 32.45 24.0203 31.202H26.0003C26.0483 31.838 26.2943 32.36 26.7383 32.768C27.1823 33.164 27.7823 33.362 28.5383 33.362C29.2703 33.362 29.8343 33.164 30.2303 32.768C30.6263 32.36 30.8243 31.838 30.8243 31.202C30.8243 30.362 30.5543 29.768 30.0143 29.42C29.4863 29.06 28.6703 28.88 27.5663 28.88H27.0983V27.188H27.5843C28.5563 27.176 29.2943 27.014 29.7983 26.702C30.3143 26.39 30.5723 25.898 30.5723 25.226C30.5723 24.65 30.3863 24.194 30.0143 23.858C29.6423 23.51 29.1143 23.336 28.4303 23.336C27.7583 23.336 27.2363 23.51 26.8643 23.858C26.4923 24.194 26.2703 24.614 26.1983 25.118H24.2003Z" fill="white"/>
</svg>
