<svg width="20" height="20" viewBox="0 0 20 20" fill="none" xmlns="http://www.w3.org/2000/svg">
<path d="M9.99967 6.66634C8.15801 6.66634 6.66634 8.15801 6.66634 9.99967C6.66634 11.8413 8.15801 13.333 9.99967 13.333C11.8413 13.333 13.333 11.8413 13.333 9.99967C13.333 8.15801 11.8413 6.66634 9.99967 6.66634ZM17.4497 9.16634C17.0663 5.69134 14.308 2.93301 10.833 2.54967V0.833008H9.16634V2.54967C5.69134 2.93301 2.93301 5.69134 2.54967 9.16634H0.833008V10.833H2.54967C2.93301 14.308 5.69134 17.0663 9.16634 17.4497V19.1663H10.833V17.4497C14.308 17.0663 17.0663 14.308 17.4497 10.833H19.1663V9.16634H17.4497ZM9.99967 15.833C6.77467 15.833 4.16634 13.2247 4.16634 9.99967C4.16634 6.77467 6.77467 4.16634 9.99967 4.16634C13.2247 4.16634 15.833 6.77467 15.833 9.99967C15.833 13.2247 13.2247 15.833 9.99967 15.833Z" fill="#333333"/>
</svg>
