<svg width="26" height="27" viewBox="0 0 26 27" fill="none" xmlns="http://www.w3.org/2000/svg">
<g clip-path="url(#clip0)">
<path d="M23.0208 26.4993H2.97923C1.33578 26.4993 0 25.1635 0 23.5201V5.64505C0 4.0016 1.33578 2.66602 2.97923 2.66602H23.0208C24.6642 2.66602 26 4.0016 26 5.64505V23.5201C26 25.1635 24.6642 26.4993 23.0208 26.4993ZM2.97923 4.29102C2.23279 4.29102 1.625 4.89861 1.625 5.64505V23.5201C1.625 24.2665 2.23279 24.8743 2.97923 24.8743H23.0208C23.7672 24.8743 24.375 24.2665 24.375 23.5201V5.64505C24.375 4.89861 23.7672 4.29102 23.0208 4.29102H2.97923Z" fill="#28282C"/>
<path d="M25.1875 10.791H0.8125C0.363998 10.791 0 10.427 0 9.97852C0 9.53001 0.363998 9.16602 0.8125 9.16602H25.1875C25.636 9.16602 26 9.53001 26 9.97852C26 10.427 25.636 10.791 25.1875 10.791Z" fill="#28282C"/>
<path d="M6.22913 7C5.78062 7 5.41663 6.636 5.41663 6.1875V1.3125C5.41663 0.863998 5.78062 0.5 6.22913 0.5C6.67763 0.5 7.04163 0.863998 7.04163 1.3125V6.1875C7.04163 6.636 6.67763 7 6.22913 7Z" fill="#28282C"/>
<path d="M19.7709 7C19.3224 7 18.9584 6.636 18.9584 6.1875V1.3125C18.9584 0.863998 19.3224 0.5 19.7709 0.5C20.2194 0.5 20.5834 0.863998 20.5834 1.3125V6.1875C20.5834 6.636 20.2194 7 19.7709 7Z" fill="#28282C"/>
</g>
<defs>
<clipPath id="clip0">
<rect width="26" height="26" fill="white" transform="translate(0 0.5)"/>
</clipPath>
</defs>
</svg>
