<svg width="26" height="27" viewBox="0 0 26 27" fill="none" xmlns="http://www.w3.org/2000/svg">
<g clip-path="url(#clip0)">
<path d="M23.5625 22.1673H2.4375C1.09308 22.1673 0 21.0742 0 19.7298V7.27148C0 5.92707 1.09308 4.83398 2.4375 4.83398H23.5625C24.9069 4.83398 26 5.92707 26 7.27148V19.7298C26 21.0742 24.9069 22.1673 23.5625 22.1673ZM2.4375 6.45898C1.989 6.45898 1.625 6.82298 1.625 7.27148V19.7298C1.625 20.1783 1.989 20.5423 2.4375 20.5423H23.5625C24.011 20.5423 24.375 20.1783 24.375 19.7298V7.27148C24.375 6.82298 24.011 6.45898 23.5625 6.45898H2.4375Z" fill="#28282C"/>
<path d="M12.9989 15.6621C12.5244 15.6621 12.051 15.5505 11.6199 15.3274L0.436606 9.48496C0.0390225 9.27805 -0.114811 8.7873 0.0921059 8.38972C0.300106 7.99214 0.791939 7.8383 1.18844 8.0463L12.3684 13.8855C12.7563 14.0859 13.2438 14.0859 13.6349 13.8833L24.8116 8.0463C25.2092 7.83722 25.6999 7.99214 25.9079 8.38972C26.1159 8.7873 25.9621 9.27805 25.5645 9.48605L14.3845 15.3252C13.949 15.5494 13.4745 15.6621 12.9989 15.6621Z" fill="#28282C"/>
</g>
<defs>
<clipPath id="clip0">
<rect width="26" height="26" fill="white" transform="translate(0 0.5)"/>
</clipPath>
</defs>
</svg>
