<svg width="21" height="21" viewBox="0 0 21 21" fill="none" xmlns="http://www.w3.org/2000/svg">
<g clip-path="url(#clip0)">
<path d="M20.7767 8.53339L10.8224 1.24504C10.6304 1.10452 10.3696 1.10452 10.1778 1.24504L0.223354 8.53339C-0.0197868 8.71144 -0.072615 9.05286 0.105434 9.296C0.283483 9.53914 0.624938 9.59188 0.868037 9.41392L10.5 2.36152L20.132 9.41388C20.2291 9.48504 20.342 9.51929 20.4539 9.51929C20.6219 9.51929 20.7877 9.44197 20.8946 9.29596C21.0727 9.05286 21.0198 8.71144 20.7767 8.53339Z" fill="#28282C"/>
<path d="M18.139 9.53809C17.8377 9.53809 17.5934 9.78237 17.5934 10.0837V18.7687H13.2284V14.0279C13.2284 12.5234 12.0044 11.2995 10.5001 11.2995C8.99569 11.2995 7.7717 12.5235 7.7717 14.0279V18.7688H3.40669V10.0838C3.40669 9.78242 3.16236 9.53813 2.86106 9.53813C2.55976 9.53813 2.31543 9.78242 2.31543 10.0838V19.3144C2.31543 19.6158 2.55976 19.8601 2.86106 19.8601H8.31733C8.60427 19.8601 8.83909 19.6384 8.86083 19.3569C8.86214 19.3442 8.86296 19.3302 8.86296 19.3144V14.0279C8.86296 13.1252 9.59734 12.3908 10.5001 12.3908C11.4028 12.3908 12.1372 13.1253 12.1372 14.0279V19.3144C12.1372 19.3302 12.138 19.3439 12.1393 19.3564C12.1608 19.6381 12.3957 19.8601 12.6828 19.8601H18.1391C18.4404 19.8601 18.6847 19.6158 18.6847 19.3144V10.0838C18.6846 9.78238 18.4404 9.53809 18.139 9.53809Z" fill="#28282C"/>
</g>
<defs>
<clipPath id="clip0">
<rect width="21" height="21" fill="white"/>
</clipPath>
</defs>
</svg>
