<svg width="20" height="20" viewBox="0 0 20 20" fill="none" xmlns="http://www.w3.org/2000/svg">
<path d="M9.85747 9.63408C11.181 9.63408 12.327 9.15938 13.2635 8.22279C14.1998 7.28636 14.6747 6.14058 14.6747 4.81689C14.6747 3.49365 14.2 2.34771 13.2634 1.41098C12.3268 0.4747 11.1809 0 9.85747 0C8.53378 0 7.388 0.4747 6.45157 1.41113C5.51514 2.34756 5.04028 3.49349 5.04028 4.81689C5.04028 6.14058 5.51514 7.28652 6.45157 8.22295C7.3883 9.15922 8.53423 9.63408 9.85747 9.63408ZM7.28042 2.23983C7.99896 1.5213 8.84185 1.17203 9.85747 1.17203C10.8729 1.17203 11.716 1.5213 12.4347 2.23983C13.1532 2.95852 13.5026 3.80157 13.5026 4.81689C13.5026 5.83251 13.1532 6.6754 12.4347 7.39409C11.716 8.11278 10.8729 8.46205 9.85747 8.46205C8.84216 8.46205 7.99926 8.11263 7.28042 7.39409C6.56173 6.67555 6.21231 5.83251 6.21231 4.81689C6.21231 3.80157 6.56173 2.95852 7.28042 2.23983Z" fill="#28282C"/>
<path d="M18.2863 15.3794C18.2592 14.9896 18.2046 14.5645 18.1242 14.1156C18.043 13.6634 17.9385 13.2358 17.8134 12.845C17.684 12.4411 17.5084 12.0423 17.2909 11.66C17.0656 11.2633 16.8007 10.9178 16.5034 10.6336C16.1926 10.3362 15.812 10.0971 15.372 9.92267C14.9334 9.74918 14.4475 9.66129 13.9276 9.66129C13.7234 9.66129 13.526 9.74506 13.1447 9.99332C12.91 10.1464 12.6355 10.3234 12.3291 10.5191C12.0671 10.6861 11.7122 10.8425 11.2738 10.9841C10.8461 11.1225 10.4118 11.1927 9.98305 11.1927C9.55458 11.1927 9.12032 11.1225 8.69231 10.9841C8.25438 10.8426 7.89931 10.6862 7.63778 10.5193C7.33428 10.3253 7.05962 10.1483 6.82143 9.99316C6.44042 9.7449 6.24297 9.66113 6.03881 9.66113C5.51879 9.66113 5.03295 9.74918 4.59457 9.92282C4.15481 10.0969 3.77411 10.336 3.46298 10.6337C3.16574 10.9181 2.90085 11.2635 2.67563 11.66C2.45849 12.0423 2.28271 12.441 2.15332 12.8452C2.02835 13.236 1.92383 13.6634 1.84265 14.1156C1.76208 14.5639 1.70761 14.9892 1.6806 15.3798C1.65405 15.7617 1.64062 16.1592 1.64062 16.5608C1.64062 17.6048 1.9725 18.45 2.62695 19.0733C3.27331 19.6884 4.12841 20.0003 5.1686 20.0003H14.7987C15.8386 20.0003 16.6937 19.6884 17.3402 19.0733C17.9948 18.4505 18.3267 17.605 18.3267 16.5607C18.3265 16.1577 18.313 15.7602 18.2863 15.3794ZM16.5321 18.2242C16.105 18.6307 15.538 18.8283 14.7986 18.8283H5.1686C4.42901 18.8283 3.862 18.6307 3.43506 18.2243C3.0162 17.8256 2.81265 17.2814 2.81265 16.5608C2.81265 16.1861 2.82501 15.8161 2.84973 15.4608C2.87384 15.1123 2.92312 14.7295 2.99621 14.3227C3.06839 13.9209 3.16025 13.5439 3.2695 13.2025C3.37433 12.8752 3.5173 12.5511 3.69461 12.2389C3.86383 11.9414 4.05853 11.6861 4.27337 11.4804C4.47433 11.288 4.72763 11.1306 5.02609 11.0124C5.30212 10.9032 5.61233 10.8434 5.94909 10.8344C5.99013 10.8562 6.06322 10.8979 6.18163 10.9751C6.42257 11.1321 6.70028 11.3112 7.00728 11.5073C7.35335 11.7279 7.79921 11.9272 8.3319 12.0992C8.87648 12.2753 9.4319 12.3647 9.9832 12.3647C10.5345 12.3647 11.0901 12.2753 11.6344 12.0993C12.1675 11.9271 12.6132 11.7279 12.9597 11.507C13.2739 11.3062 13.5438 11.1322 13.7848 10.9751C13.9032 10.898 13.9763 10.8562 14.0173 10.8344C14.3542 10.8434 14.6644 10.9032 14.9406 11.0124C15.2389 11.1306 15.4922 11.2882 15.6932 11.4804C15.908 11.686 16.1027 11.9412 16.2719 12.2391C16.4494 12.5511 16.5925 12.8754 16.6972 13.2024C16.8066 13.5442 16.8986 13.9211 16.9706 14.3225C17.0436 14.7301 17.093 15.1131 17.1171 15.461V15.4613C17.142 15.8151 17.1545 16.185 17.1547 16.5608C17.1545 17.2815 16.951 17.8256 16.5321 18.2242Z" fill="#28282C"/>
</svg>
