<svg width="20" height="20" viewBox="0 0 20 20" fill="none" xmlns="http://www.w3.org/2000/svg">
<g clip-path="url(#clip0)">
<path d="M2.5141 2.51508C4.13598 0.893203 6.29235 0 8.58598 0C10.8796 0 13.036 0.893203 14.6578 2.51508C16.2796 4.13691 17.1729 6.29328 17.1729 8.58687C17.1729 10.6839 16.4259 12.6658 15.0584 14.2298L19.8272 18.9987C20.0563 19.2277 20.0563 19.5991 19.8272 19.8282C19.7127 19.9427 19.5626 20 19.4125 20C19.2624 20 19.1123 19.9427 18.9978 19.8282L14.2289 15.0593C12.6649 16.4268 10.683 17.1738 8.58598 17.1738C6.29231 17.1738 4.13602 16.2806 2.51414 14.6588C0.892305 13.0369 -0.000896454 10.8805 -0.000896454 8.58691C-0.000896454 6.29328 0.892267 4.13691 2.5141 2.51508ZM3.34364 13.8293C6.2343 16.7199 10.9376 16.7199 13.8283 13.8293C16.7189 10.9386 16.7189 6.23523 13.8283 3.34461C12.3828 1.89914 10.4847 1.17664 8.58594 1.17664C6.68766 1.17664 4.78875 1.89949 3.3436 3.34461C0.453049 6.2352 0.453049 10.9386 3.34364 13.8293Z" fill="#EFEFE9"/>
</g>
<defs>
<clipPath id="clip0">
<rect width="20" height="20" fill="white" transform="matrix(-1 0 0 1 20 0)"/>
</clipPath>
</defs>
</svg>
