<svg width="26" height="27" viewBox="0 0 26 27" fill="none" xmlns="http://www.w3.org/2000/svg">
<g clip-path="url(#clip0)">
<path d="M13 0.5C7.62288 0.5 3.25 4.87288 3.25 10.25C3.25 17.0084 12.051 25.8874 12.4247 26.2628C12.584 26.4204 12.792 26.5 13 26.5C13.208 26.5 13.416 26.4204 13.5753 26.2628C13.949 25.8874 22.75 17.0084 22.75 10.25C22.75 4.87288 18.3771 0.5 13 0.5ZM13 24.5126C11.0598 22.4359 4.875 15.4126 4.875 10.25C4.875 5.76988 8.51988 2.125 13 2.125C17.4801 2.125 21.125 5.76988 21.125 10.25C21.125 15.4078 14.9403 22.4359 13 24.5126Z" fill="#28282C"/>
<path d="M13 5.375C10.3122 5.375 8.125 7.56225 8.125 10.25C8.125 12.9377 10.3122 15.125 13 15.125C15.6877 15.125 17.875 12.9377 17.875 10.25C17.875 7.56225 15.6877 5.375 13 5.375ZM13 13.5C11.2076 13.5 9.75 12.0424 9.75 10.25C9.75 8.45762 11.2076 7 13 7C14.7924 7 16.25 8.45762 16.25 10.25C16.25 12.0424 14.7924 13.5 13 13.5Z" fill="#28282C"/>
</g>
<defs>
<clipPath id="clip0">
<rect width="26" height="26" fill="white" transform="translate(0 0.5)"/>
</clipPath>
</defs>
</svg>
