<svg width="16" height="21" viewBox="0 0 16 21" fill="none" xmlns="http://www.w3.org/2000/svg">
<path d="M7.875 0C3.53194 0 0 3.53194 0 7.875C0 13.3337 7.1085 20.5052 7.41037 20.8084C7.539 20.9357 7.707 21 7.875 21C8.043 21 8.211 20.9357 8.33963 20.8084C8.6415 20.5052 15.75 13.3337 15.75 7.875C15.75 3.53194 12.2181 0 7.875 0ZM7.875 19.3948C6.30788 17.7174 1.3125 12.0448 1.3125 7.875C1.3125 4.25644 4.25644 1.3125 7.875 1.3125C11.4936 1.3125 14.4375 4.25644 14.4375 7.875C14.4375 12.0409 9.44213 17.7174 7.875 19.3948Z" fill="#28282C" fill-opacity="0.8"/>
<path d="M7.875 3.9375C5.70412 3.9375 3.9375 5.70412 3.9375 7.875C3.9375 10.0459 5.70412 11.8125 7.875 11.8125C10.0459 11.8125 11.8125 10.0459 11.8125 7.875C11.8125 5.70412 10.0459 3.9375 7.875 3.9375ZM7.875 10.5C6.42731 10.5 5.25 9.32269 5.25 7.875C5.25 6.42731 6.42731 5.25 7.875 5.25C9.32269 5.25 10.5 6.42731 10.5 7.875C10.5 9.32269 9.32269 10.5 7.875 10.5Z" fill="#28282C" fill-opacity="0.8"/>
</svg>
