<?xml version="1.0" encoding="UTF-8"?>
<svg width="25px" height="25px" viewBox="0 0 25 25" version="1.1" xmlns="http://www.w3.org/2000/svg" xmlns:xlink="http://www.w3.org/1999/xlink">
    <!-- Generator: Sketch 62 (91390) - https://sketch.com -->
    <title>Icons / Loop</title>
    <desc>Created with Sketch.</desc>
    <g id="Icons-/-Loop" stroke="none" stroke-width="1" fill="none" fill-rule="evenodd">
        <g id="Group" fill="#101820" fill-rule="nonzero">
            <path d="M9.77753833,0.112124538 C15.115599,0.112124538 19.4429521,4.43947769 19.4429521,9.77753833 C19.4429521,12.2519519 18.51313,14.5091938 16.9838289,16.2189209 L24.7293074,23.9636732 C24.9407315,24.1750972 24.9407315,24.5178834 24.7293074,24.7293074 C24.5178834,24.9407315 24.1750972,24.9407315 23.9636732,24.7293074 L16.2189209,16.9838289 C14.5091938,18.51313 12.2519519,19.4429521 9.77753833,19.4429521 C4.43947769,19.4429521 0.112124538,15.115599 0.112124538,9.77753833 C0.112124538,4.43947769 4.43947769,0.112124538 9.77753833,0.112124538 Z M9.77753833,1.11212454 C4.99176244,1.11212454 1.11212454,4.99176244 1.11212454,9.77753833 C1.11212454,14.5633142 4.99176244,18.4429521 9.77753833,18.4429521 C14.5633142,18.4429521 18.4429521,14.5633142 18.4429521,9.77753833 C18.4429521,4.99176244 14.5633142,1.11212454 9.77753833,1.11212454 Z M9.77753833,4.27753833 C10.0536807,4.27753833 10.2775383,4.50139596 10.2775383,4.77753833 L10.2771245,9.27712454 L14.7775383,9.27753833 C15.0536807,9.27753833 15.2775383,9.50139596 15.2775383,9.77753833 C15.2775383,10.0536807 15.0536807,10.2775383 14.7775383,10.2775383 L10.2771245,10.2771245 L10.2775383,14.7775383 C10.2775383,15.0536807 10.0536807,15.2775383 9.77753833,15.2775383 C9.50139596,15.2775383 9.27753833,15.0536807 9.27753833,14.7775383 L9.27712454,10.2771245 L4.77753833,10.2775383 C4.50139596,10.2775383 4.27753833,10.0536807 4.27753833,9.77753833 C4.27753833,9.50139596 4.50139596,9.27753833 4.77753833,9.27753833 L9.27712454,9.27712454 L9.27753833,4.77753833 C9.27753833,4.50139596 9.50139596,4.27753833 9.77753833,4.27753833 Z" id="Combined-Shape"></path>
        </g>
    </g>
</svg>