<svg width="28" height="28" viewBox="0 0 28 28" fill="none" xmlns="http://www.w3.org/2000/svg">
<path d="M21.5018 20.5859C25.6525 15.9518 25.5026 8.80277 21.0507 4.35109C16.4972 -0.198049 9.13953 -0.264044 4.50528 4.20306C-0.129168 8.66996 -0.333732 16.0252 4.04517 20.7427C8.42407 25.4605 15.7742 25.8036 20.5733 21.5143L26.0143 26.9553C26.2711 27.2098 26.6851 27.2088 26.9407 26.9533C27.1962 26.6977 27.1973 26.2837 26.9428 26.0269L21.5018 20.5859ZM5.267 20.1348C1.14591 16.0517 1.11487 9.40105 5.19772 5.27954C9.28077 1.15845 15.9317 1.1274 20.053 5.21026L20.1222 5.27954C24.2178 9.37514 24.2178 16.039 20.1222 20.1348C16.0264 24.2306 9.36239 24.2304 5.267 20.1348Z" fill="white"/>
<path d="M16.6333 12.0484H13.3498V8.76778C13.3498 8.40532 13.056 8.11133 12.6934 8.11133C12.3311 8.11133 12.0369 8.40532 12.0369 8.76778V12.0484H8.75606C8.39381 12.0484 8.09961 12.3426 8.09961 12.7049C8.09961 13.0675 8.39381 13.3613 8.75606 13.3613H12.0369V16.645C12.0369 17.0075 12.3311 17.3015 12.6934 17.3015C13.056 17.3015 13.3498 17.0075 13.3498 16.645V13.3613H16.6333C16.996 13.3613 17.2898 13.0675 17.2898 12.7049C17.2898 12.3426 16.996 12.0484 16.6333 12.0484Z" fill="white"/>
</svg>
