<svg width="48" height="63" viewBox="0 0 48 63" fill="none" xmlns="http://www.w3.org/2000/svg">
<path d="M23.625 0C10.5958 0 0 10.5958 0 23.625C0 40.0011 21.3255 61.5156 22.2311 62.4251C22.617 62.8071 23.121 63 23.625 63C24.129 63 24.633 62.8071 25.0189 62.4251C25.9245 61.5156 47.25 40.0011 47.25 23.625C47.25 10.5958 36.6542 0 23.625 0ZM23.625 58.1844C18.9236 53.1523 3.9375 36.1344 3.9375 23.625C3.9375 12.7693 12.7693 3.9375 23.625 3.9375C34.4807 3.9375 43.3125 12.7693 43.3125 23.625C43.3125 36.1226 28.3264 53.1523 23.625 58.1844Z" fill="#28282C"/>
<path d="M23.625 11.8125C17.1124 11.8125 11.8125 17.1124 11.8125 23.625C11.8125 30.1376 17.1124 35.4375 23.625 35.4375C30.1376 35.4375 35.4375 30.1376 35.4375 23.625C35.4375 17.1124 30.1376 11.8125 23.625 11.8125ZM23.625 31.5C19.2819 31.5 15.75 27.9681 15.75 23.625C15.75 19.2819 19.2819 15.75 23.625 15.75C27.9681 15.75 31.5 19.2819 31.5 23.625C31.5 27.9681 27.9681 31.5 23.625 31.5Z" fill="#28282C"/>
<path fill-rule="evenodd" clip-rule="evenodd" d="M23.625 58.1844C18.9236 53.1523 3.9375 36.1344 3.9375 23.625C3.9375 12.7693 12.7693 3.9375 23.625 3.9375C34.4807 3.9375 43.3125 12.7693 43.3125 23.625C43.3125 36.1226 28.3264 53.1523 23.625 58.1844ZM11.8125 23.625C11.8125 17.1124 17.1124 11.8125 23.625 11.8125C30.1376 11.8125 35.4375 17.1124 35.4375 23.625C35.4375 30.1376 30.1376 35.4375 23.625 35.4375C17.1124 35.4375 11.8125 30.1376 11.8125 23.625Z" fill="#28282C"/>
</svg>
