<svg width="20" height="20" viewBox="0 0 20 20" fill="none" xmlns="http://www.w3.org/2000/svg">
<g clip-path="url(#clip0)">
<path d="M2.51313 2.51508C4.135 0.893203 6.29137 0 8.585 0C10.8786 0 13.035 0.893203 14.6568 2.51508C16.2787 4.13691 17.1719 6.29328 17.1719 8.58687C17.1719 10.6839 16.4249 12.6658 15.0574 14.2298L19.8263 18.9987C20.0553 19.2277 20.0553 19.5991 19.8263 19.8282C19.7117 19.9427 19.5616 20 19.4115 20C19.2614 20 19.1113 19.9427 18.9968 19.8282L14.2279 15.0593C12.6639 16.4268 10.682 17.1738 8.585 17.1738C6.29133 17.1738 4.13504 16.2806 2.51316 14.6588C0.891329 13.0369 -0.00187302 10.8805 -0.00187302 8.58691C-0.00187302 6.29328 0.891291 4.13691 2.51313 2.51508ZM3.34266 13.8293C6.23332 16.7199 10.9366 16.7199 13.8273 13.8293C16.7179 10.9386 16.7179 6.23523 13.8273 3.34461C12.3818 1.89914 10.4837 1.17664 8.58496 1.17664C6.68668 1.17664 4.78778 1.89949 3.34262 3.34461C0.452072 6.2352 0.452072 10.9386 3.34266 13.8293Z" fill="#28282C"/>
</g>
<defs>
<clipPath id="clip0">
<rect width="20" height="20" fill="white" transform="matrix(-1 0 0 1 20 0)"/>
</clipPath>
</defs>
</svg>
