<svg width="31" height="31" viewBox="0 0 31 31" fill="none" xmlns="http://www.w3.org/2000/svg">
<path d="M14.3009 14.7214C14.1898 14.7214 14.0833 14.6772 14.0047 14.5987L13.1459 13.7399C13.0674 13.6612 13.0233 13.5545 13.0234 13.4433C13.0236 13.3321 13.0678 13.2255 13.1466 13.1469C13.2253 13.0684 13.332 13.0243 13.4432 13.0244C13.5544 13.0245 13.661 13.0688 13.7395 13.1475L14.5983 14.0063C14.6569 14.0649 14.6968 14.1395 14.7129 14.2208C14.7291 14.302 14.7208 14.3863 14.6891 14.4628C14.6574 14.5393 14.6037 14.6047 14.5348 14.6508C14.466 14.6968 14.385 14.7214 14.3022 14.7214H14.3009Z" fill="#28282C"/>
<path d="M29.7433 30.1631H1.25681C1.14571 30.1631 1.03915 30.119 0.960589 30.0404C0.882027 29.9618 0.837891 29.8553 0.837891 29.7442V1.2577C0.837908 1.17486 0.862487 1.09388 0.90852 1.025C0.954552 0.95613 1.01997 0.90245 1.09651 0.870751C1.17304 0.839051 1.25726 0.830755 1.33851 0.846912C1.41976 0.863069 1.4944 0.902952 1.55299 0.961521L11.6657 11.0742C11.742 11.1532 11.7842 11.2591 11.7833 11.3689C11.7823 11.4787 11.7383 11.5838 11.6606 11.6615C11.5829 11.7391 11.4778 11.7832 11.368 11.7842C11.2582 11.7851 11.1523 11.7429 11.0733 11.6666L1.67573 2.26897V29.3253H28.732L19.0328 19.626C18.9565 19.547 18.9143 19.4412 18.9152 19.3314C18.9162 19.2215 18.9602 19.1165 19.0379 19.0388C19.1156 18.9611 19.2206 18.9171 19.3305 18.9161C19.4403 18.9151 19.5461 18.9574 19.6251 19.0337L30.0395 29.448C30.098 29.5066 30.1379 29.5812 30.1541 29.6625C30.1702 29.7437 30.1619 29.8279 30.1302 29.9045C30.0985 29.981 30.0449 30.0464 29.976 30.0925C29.9071 30.1385 29.8261 30.1631 29.7433 30.1631Z" fill="#28282C"/>
<path d="M17.2554 17.675C17.1443 17.675 17.0378 17.6308 16.9593 17.5522L16.0795 16.6725C16.001 16.5938 15.9569 16.4871 15.957 16.3759C15.9571 16.2647 16.0014 16.1581 16.0802 16.0795C16.1589 16.001 16.2656 15.9569 16.3768 15.957C16.488 15.9571 16.5946 16.0014 16.6731 16.0802L17.5529 16.9599C17.6115 17.0185 17.6513 17.0931 17.6675 17.1744C17.6836 17.2556 17.6754 17.3398 17.6437 17.4164C17.612 17.4929 17.5583 17.5583 17.4894 17.6044C17.4205 17.6504 17.3395 17.675 17.2567 17.675H17.2554Z" fill="#28282C"/>
<path d="M19.6276 25.9727H5.44431C5.3332 25.9727 5.22665 25.9285 5.14809 25.85C5.06953 25.7714 5.02539 25.6649 5.02539 25.5538V11.37C5.02541 11.2872 5.04999 11.2062 5.09602 11.1373C5.14205 11.0684 5.20747 11.0148 5.28401 10.9831C5.36054 10.9514 5.44476 10.9431 5.52601 10.9592C5.60726 10.9754 5.6819 11.0153 5.74048 11.0738L19.9238 25.2576C19.9824 25.3162 20.0223 25.3908 20.0384 25.4721C20.0546 25.5533 20.0463 25.6375 20.0146 25.7141C19.9829 25.7906 19.9292 25.856 19.8603 25.902C19.7914 25.9481 19.7105 25.9727 19.6276 25.9727ZM5.86323 25.1348H18.6164L5.86323 12.3813V25.1348Z" fill="#28282C"/>
<path d="M22.29 30.1619C22.1789 30.1619 22.0724 30.1178 21.9938 30.0392C21.9152 29.9607 21.8711 29.8541 21.8711 29.743V27.6484C21.8711 27.5373 21.9152 27.4308 21.9938 27.3522C22.0724 27.2736 22.1789 27.2295 22.29 27.2295C22.4011 27.2295 22.5077 27.2736 22.5862 27.3522C22.6648 27.4308 22.7089 27.5373 22.7089 27.6484V29.743C22.7089 29.8541 22.6648 29.9607 22.5862 30.0392C22.5077 30.1178 22.4011 30.1619 22.29 30.1619Z" fill="#28282C"/>
<path d="M18.8916 30.1629C18.7805 30.1629 18.6739 30.1188 18.5954 30.0402C18.5168 29.9617 18.4727 29.8551 18.4727 29.744V28.4873C18.4727 28.3762 18.5168 28.2696 18.5954 28.1911C18.6739 28.1125 18.7805 28.0684 18.8916 28.0684C19.0027 28.0684 19.1092 28.1125 19.1878 28.1911C19.2664 28.2696 19.3105 28.3762 19.3105 28.4873V29.744C19.3105 29.8551 19.2664 29.9617 19.1878 30.0402C19.1092 30.1188 19.0027 30.1629 18.8916 30.1629Z" fill="#28282C"/>
<path d="M15.4951 30.1619C15.384 30.1619 15.2774 30.1178 15.1989 30.0392C15.1203 29.9607 15.0762 29.8541 15.0762 29.743V27.6484C15.0762 27.5373 15.1203 27.4308 15.1989 27.3522C15.2774 27.2736 15.384 27.2295 15.4951 27.2295C15.6062 27.2295 15.7128 27.2736 15.7913 27.3522C15.8699 27.4308 15.914 27.5373 15.914 27.6484V29.743C15.914 29.8541 15.8699 29.9607 15.7913 30.0392C15.7128 30.1178 15.6062 30.1619 15.4951 30.1619Z" fill="#28282C"/>
<path d="M12.0986 30.1629C11.9875 30.1629 11.8809 30.1188 11.8024 30.0402C11.7238 29.9617 11.6797 29.8551 11.6797 29.744V28.4873C11.6797 28.3762 11.7238 28.2696 11.8024 28.1911C11.8809 28.1125 11.9875 28.0684 12.0986 28.0684C12.2097 28.0684 12.3163 28.1125 12.3948 28.1911C12.4734 28.2696 12.5175 28.3762 12.5175 28.4873V29.744C12.5175 29.8551 12.4734 29.9617 12.3948 30.0402C12.3163 30.1188 12.2097 30.1629 12.0986 30.1629Z" fill="#28282C"/>
<path d="M8.70212 30.1619C8.59101 30.1619 8.48446 30.1178 8.4059 30.0392C8.32734 29.9607 8.2832 29.8541 8.2832 29.743V27.6484C8.2832 27.5373 8.32734 27.4308 8.4059 27.3522C8.48446 27.2736 8.59101 27.2295 8.70212 27.2295C8.81322 27.2295 8.91977 27.2736 8.99833 27.3522C9.07689 27.4308 9.12103 27.5373 9.12103 27.6484V29.743C9.12103 29.8541 9.07689 29.9607 8.99833 30.0392C8.91977 30.1178 8.81322 30.1619 8.70212 30.1619Z" fill="#28282C"/>
<path d="M5.30759 30.1629C5.19649 30.1629 5.08993 30.1188 5.01137 30.0402C4.93281 29.9617 4.88867 29.8551 4.88867 29.744V28.4873C4.88867 28.3762 4.93281 28.2696 5.01137 28.1911C5.08993 28.1125 5.19649 28.0684 5.30759 28.0684C5.4187 28.0684 5.52525 28.1125 5.60381 28.1911C5.68237 28.2696 5.72651 28.3762 5.72651 28.4873V29.744C5.72651 29.8551 5.68237 29.9617 5.60381 30.0402C5.52525 30.1188 5.4187 30.1629 5.30759 30.1629Z" fill="#28282C"/>
<path d="M3.3514 9.10345H1.25681C1.14571 9.10345 1.03915 9.05932 0.960589 8.98076C0.882027 8.90219 0.837891 8.79564 0.837891 8.68454C0.837891 8.57344 0.882027 8.46688 0.960589 8.38832C1.03915 8.30976 1.14571 8.26562 1.25681 8.26562H3.3514C3.46251 8.26562 3.56906 8.30976 3.64762 8.38832C3.72619 8.46688 3.77032 8.57344 3.77032 8.68454C3.77032 8.79564 3.72619 8.90219 3.64762 8.98076C3.56906 9.05932 3.46251 9.10345 3.3514 9.10345Z" fill="#28282C"/>
<path d="M2.51357 12.4999H1.25681C1.14571 12.4999 1.03915 12.4558 0.960589 12.3772C0.882027 12.2987 0.837891 12.1921 0.837891 12.081C0.837891 11.9699 0.882027 11.8634 0.960589 11.7848C1.03915 11.7062 1.14571 11.6621 1.25681 11.6621H2.51357C2.62467 11.6621 2.73122 11.7062 2.80979 11.7848C2.88835 11.8634 2.93249 11.9699 2.93249 12.081C2.93249 12.1921 2.88835 12.2987 2.80979 12.3772C2.73122 12.4558 2.62467 12.4999 2.51357 12.4999Z" fill="#28282C"/>
<path d="M3.3514 15.8974H1.25681C1.14571 15.8974 1.03915 15.8533 0.960589 15.7747C0.882027 15.6962 0.837891 15.5896 0.837891 15.4785C0.837891 15.3674 0.882027 15.2608 0.960589 15.1823C1.03915 15.1037 1.14571 15.0596 1.25681 15.0596H3.3514C3.46251 15.0596 3.56906 15.1037 3.64762 15.1823C3.72619 15.2608 3.77032 15.3674 3.77032 15.4785C3.77032 15.5896 3.72619 15.6962 3.64762 15.7747C3.56906 15.8533 3.46251 15.8974 3.3514 15.8974Z" fill="#28282C"/>
<path d="M2.51357 19.2939H1.25681C1.14571 19.2939 1.03915 19.2498 0.960589 19.1712C0.882027 19.0926 0.837891 18.9861 0.837891 18.875C0.837891 18.7639 0.882027 18.6573 0.960589 18.5788C1.03915 18.5002 1.14571 18.4561 1.25681 18.4561H2.51357C2.62467 18.4561 2.73122 18.5002 2.80979 18.5788C2.88835 18.6573 2.93249 18.7639 2.93249 18.875C2.93249 18.9861 2.88835 19.0926 2.80979 19.1712C2.73122 19.2498 2.62467 19.2939 2.51357 19.2939Z" fill="#28282C"/>
<path d="M3.3514 22.6904H1.25681C1.14571 22.6904 1.03915 22.6463 0.960589 22.5677C0.882027 22.4891 0.837891 22.3826 0.837891 22.2715C0.837891 22.1604 0.882027 22.0538 0.960589 21.9752C1.03915 21.8967 1.14571 21.8525 1.25681 21.8525H3.3514C3.46251 21.8525 3.56906 21.8967 3.64762 21.9752C3.72619 22.0538 3.77032 22.1604 3.77032 22.2715C3.77032 22.3826 3.72619 22.4891 3.64762 22.5677C3.56906 22.6463 3.46251 22.6904 3.3514 22.6904Z" fill="#28282C"/>
<path d="M2.51357 26.0869H1.25681C1.14571 26.0869 1.03915 26.0427 0.960589 25.9642C0.882027 25.8856 0.837891 25.7791 0.837891 25.668C0.837891 25.5568 0.882027 25.4503 0.960589 25.3717C1.03915 25.2932 1.14571 25.249 1.25681 25.249H2.51357C2.62467 25.249 2.73122 25.2932 2.80979 25.3717C2.88835 25.4503 2.93249 25.5568 2.93249 25.668C2.93249 25.7791 2.88835 25.8856 2.80979 25.9642C2.73122 26.0427 2.62467 26.0869 2.51357 26.0869Z" fill="#28282C"/>
</svg>
