<svg width="21" height="21" viewBox="0 0 21 21" fill="none" xmlns="http://www.w3.org/2000/svg">
<g clip-path="url(#clip0)">
<path d="M19.8482 5.72748C18.1071 2.33143 14.5717 0 10.5 0C6.42697 0 2.89116 2.33232 1.15044 5.73082C1.14353 5.74442 1.13529 5.75668 1.12994 5.77094C0.409042 7.19334 0 8.79941 0 10.5C0 12.201 0.409042 13.8071 1.12994 15.2291C1.13529 15.2433 1.14353 15.2556 1.15044 15.2692C2.89071 18.6677 6.42697 21 10.5 21C14.5717 21 18.1071 18.669 19.8482 15.2725C19.856 15.2574 19.8652 15.2438 19.871 15.2277C20.5914 13.8058 21 12.2001 21 10.5C21 8.79986 20.5914 7.19423 19.871 5.77228C19.8647 5.75623 19.856 5.74263 19.8482 5.72748ZM19.1487 14.6087H15.1359C15.3588 13.4839 15.4912 12.2539 15.5162 10.9565H20.0638C20.002 12.259 19.6815 13.4921 19.1487 14.6087ZM10.5 20.087C9.05598 20.087 7.76087 18.2357 7.02638 15.5217H13.9736C13.2391 18.2357 11.944 20.087 10.5 20.087ZM6.80815 14.6087C6.57209 13.4861 6.4292 12.2516 6.40178 10.9565H14.5987C14.5708 12.2516 14.4279 13.4861 14.1923 14.6087H6.80815ZM0.936226 10.9565H5.48383C5.50925 12.2539 5.64121 13.4839 5.86412 14.6087H1.85128C1.31852 13.4921 0.997973 12.259 0.936226 10.9565ZM1.85128 6.3913H5.86412C5.64121 7.51611 5.5088 8.74614 5.48383 10.0435H0.936226C0.997973 8.74101 1.31852 7.50787 1.85128 6.3913ZM10.5 0.913043C11.944 0.913043 13.2391 2.76432 13.9736 5.47826H7.02638C7.76087 2.76432 9.05598 0.913043 10.5 0.913043ZM14.1919 6.3913C14.4279 7.51344 14.5708 8.74837 14.5982 10.0435H6.40134C6.4292 8.74837 6.57209 7.51344 6.8077 6.3913H14.1919ZM15.5162 10.0435C15.4908 8.74614 15.3588 7.51611 15.1359 6.3913H19.1487C19.6815 7.50787 20.002 8.74101 20.0638 10.0435H15.5162ZM18.6507 5.47826H14.9292C14.4671 3.66689 13.7587 2.18943 12.8907 1.22713C15.3153 1.85306 17.3661 3.40073 18.6507 5.47826ZM8.10883 1.22713C7.24126 2.18943 6.53285 3.66689 6.07031 5.47826H2.34881C3.6339 3.40073 5.68468 1.85306 8.10883 1.22713ZM2.34926 15.5217H6.07031C6.53241 17.3331 7.24082 18.8106 8.10883 19.7729C5.68468 19.1469 3.6339 17.5988 2.34926 15.5217ZM12.8912 19.7729C13.7587 18.8106 14.4671 17.3331 14.9297 15.5217H18.6507C17.3661 17.5988 15.3153 19.1469 12.8912 19.7729Z" fill="#28282C" fill-opacity="0.8"/>
</g>
<defs>
<clipPath id="clip0">
<rect width="21" height="21" fill="white"/>
</clipPath>
</defs>
</svg>
