<svg width="21" height="22" viewBox="0 0 21 22" fill="none" xmlns="http://www.w3.org/2000/svg">
<path d="M21 3.99902H0V17.9987H21V3.99902Z" fill="#D80027"/>
<path d="M10.1395 9.39355L10.8611 10.388L12.0298 10.0091L11.307 11.0026L12.0286 11.997L10.8603 11.6166L10.1375 12.6102L10.1383 11.3816L8.96997 11.0012L10.1387 10.6223L10.1395 9.39355Z" fill="#F0F0F0"/>
<path d="M8.17033 13.4863C6.79758 13.4863 5.68471 12.3734 5.68471 11.0006C5.68471 9.62789 6.79758 8.51501 8.17033 8.51501C8.59837 8.51501 9.00107 8.62325 9.35269 8.81377C8.80111 8.27433 8.04675 7.94141 7.21434 7.94141C5.52479 7.94141 4.15515 9.31108 4.15515 11.0006C4.15515 12.6901 5.52483 14.0598 7.21434 14.0598C8.04675 14.0598 8.80111 13.7269 9.35269 13.1874C9.00111 13.378 8.59837 13.4863 8.17033 13.4863Z" fill="#F0F0F0"/>
</svg>
