<svg width="21" height="22" viewBox="0 0 21 22" fill="none" xmlns="http://www.w3.org/2000/svg">
<path d="M20.6379 17.8797H0.362085C0.162134 17.8797 0 17.7176 0 17.5176V4.48318C0 4.28323 0.162134 4.12109 0.362085 4.12109H20.6379C20.8379 4.12109 21 4.28323 21 4.48318V17.5176C21 17.7176 20.8378 17.8797 20.6379 17.8797Z" fill="#FF4B55"/>
<path d="M7.60342 4.12012H0.362085C0.162134 4.12012 0 4.28221 0 4.48216V17.5166C0 17.7166 0.162134 17.8787 0.362085 17.8787H7.60346V4.12012H7.60342Z" fill="#73AF00"/>
<path d="M7.60628 14.2558C9.40441 14.2558 10.8621 12.7981 10.8621 11C10.8621 9.20182 9.40441 7.74414 7.60628 7.74414C5.80814 7.74414 4.35046 9.20182 4.35046 11C4.35046 12.7981 5.80814 14.2558 7.60628 14.2558Z" fill="#FFE15A"/>
<path d="M8.6925 9.91358V11.3618C8.6925 11.9608 8.20523 12.4481 7.60628 12.4481C7.00733 12.4481 6.52007 11.9608 6.52007 11.3618V9.91358H8.6925ZM9.05454 9.18945H6.15798C5.95803 9.18945 5.7959 9.35159 5.7959 9.55154V11.3619C5.7959 12.3617 6.60645 13.1722 7.60624 13.1722C8.60604 13.1722 9.41659 12.3617 9.41659 11.3619V9.55154C9.41663 9.35159 9.25449 9.18945 9.05454 9.18945Z" fill="#FF4B55"/>
<path d="M8.69245 9.91406V11.3623C8.69245 11.9613 8.20518 12.4485 7.60623 12.4485C7.00728 12.4485 6.52002 11.9613 6.52002 11.3623V9.91406H8.69245Z" fill="#F5F5F5"/>
<path d="M6.15516 9.7322C6.25515 9.7322 6.33621 9.65115 6.33621 9.55116C6.33621 9.45117 6.25515 9.37012 6.15516 9.37012C6.05518 9.37012 5.97412 9.45117 5.97412 9.55116C5.97412 9.65115 6.05518 9.7322 6.15516 9.7322Z" fill="#FFE15A"/>
<path d="M9.05177 9.7322C9.15176 9.7322 9.23281 9.65115 9.23281 9.55116C9.23281 9.45117 9.15176 9.37012 9.05177 9.37012C8.95178 9.37012 8.87073 9.45117 8.87073 9.55116C8.87073 9.65115 8.95178 9.7322 9.05177 9.7322Z" fill="#FFE15A"/>
<path d="M6.15516 11.1795C6.25515 11.1795 6.33621 11.0984 6.33621 10.9984C6.33621 10.8984 6.25515 10.8174 6.15516 10.8174C6.05518 10.8174 5.97412 10.8984 5.97412 10.9984C5.97412 11.0984 6.05518 11.1795 6.15516 11.1795Z" fill="#FFE15A"/>
<path d="M9.05177 11.1795C9.15176 11.1795 9.23281 11.0984 9.23281 10.9984C9.23281 10.8984 9.15176 10.8174 9.05177 10.8174C8.95178 10.8174 8.87073 10.8984 8.87073 10.9984C8.87073 11.0984 8.95178 11.1795 9.05177 11.1795Z" fill="#FFE15A"/>
<path d="M7.60341 9.7322C7.70339 9.7322 7.78445 9.65115 7.78445 9.55116C7.78445 9.45117 7.70339 9.37012 7.60341 9.37012C7.50342 9.37012 7.42236 9.45117 7.42236 9.55116C7.42236 9.65115 7.50342 9.7322 7.60341 9.7322Z" fill="#FFE15A"/>
<path d="M8.69032 12.5164C8.79031 12.5164 8.87136 12.4353 8.87136 12.3353C8.87136 12.2354 8.79031 12.1543 8.69032 12.1543C8.59033 12.1543 8.50928 12.2354 8.50928 12.3353C8.50928 12.4353 8.59033 12.5164 8.69032 12.5164Z" fill="#FFE15A"/>
<path d="M6.53773 12.5164C6.63772 12.5164 6.71878 12.4353 6.71878 12.3353C6.71878 12.2354 6.63772 12.1543 6.53773 12.1543C6.43775 12.1543 6.35669 12.2354 6.35669 12.3353C6.35669 12.4353 6.43775 12.5164 6.53773 12.5164Z" fill="#FFE15A"/>
<path d="M7.84018 10.9092V11.221C7.84018 11.3499 7.73526 11.4548 7.60631 11.4548C7.47735 11.4548 7.37244 11.3499 7.37244 11.221V10.9092H7.84018Z" fill="#41479B"/>
<path d="M7.84018 10.1699V10.4817C7.84018 10.6107 7.73526 10.7156 7.60631 10.7156C7.47735 10.7156 7.37244 10.6107 7.37244 10.4817V10.1699H7.84018Z" fill="#41479B"/>
<path d="M7.84018 11.6562V11.968C7.84018 12.097 7.73526 12.2019 7.60631 12.2019C7.47735 12.2019 7.37244 12.097 7.37244 11.968V11.6562H7.84018Z" fill="#41479B"/>
<path d="M8.47018 10.9092V11.221C8.47018 11.3499 8.36526 11.4548 8.23631 11.4548C8.10736 11.4548 8.00244 11.3499 8.00244 11.221V10.9092H8.47018Z" fill="#41479B"/>
<path d="M7.21042 10.9092V11.221C7.21042 11.3499 7.1055 11.4548 6.97655 11.4548C6.84759 11.4548 6.74268 11.3499 6.74268 11.221V10.9092H7.21042Z" fill="#41479B"/>
</svg>
