<svg width="21" height="22" viewBox="0 0 21 22" fill="none" xmlns="http://www.w3.org/2000/svg">
<path d="M0.362085 17.8797H20.6379C20.8379 17.8797 21 17.7176 21 17.5176V4.48318C21 4.28323 20.8379 4.12109 20.6379 4.12109H0.362085C0.162134 4.12113 0 4.28323 0 4.48318V17.5176C0 17.7176 0.162134 17.8797 0.362085 17.8797Z" fill="#C8414B"/>
<path d="M21 7.01758H0V14.9832H21V7.01758Z" fill="#FFD250"/>
<path d="M8.87063 11.0004L9.17763 9.61899C9.20593 9.49176 9.10909 9.37109 8.97875 9.37109H8.76252C8.63221 9.37109 8.53541 9.49176 8.56363 9.61899L8.87063 11.0004Z" fill="#C8414B"/>
<path d="M9.2328 10.2744H8.50867V13.3518H9.2328V10.2744Z" fill="#F5F5F5"/>
<path d="M9.41361 9.91309H8.32739V10.2752H9.41361V9.91309Z" fill="#FAB446"/>
<path d="M9.41406 11.001H7.60364V11.3631H9.41406V11.001Z" fill="#C8414B"/>
<path d="M9.41385 12.4478L8.32764 12.0857V11.7236L9.41385 12.0857V12.4478Z" fill="#C8414B"/>
<path d="M3.43973 11.0004L3.74673 9.61899C3.77503 9.49176 3.67819 9.37109 3.54785 9.37109H3.33161C3.2013 9.37109 3.10451 9.49176 3.13273 9.61899L3.43973 11.0004Z" fill="#C8414B"/>
<path d="M4.70693 9.91406C4.50698 9.91406 4.34485 10.0762 4.34485 10.2761V12.6296C4.34485 13.0695 4.75541 13.8968 6.15519 13.8968C7.55497 13.8968 7.96554 13.0695 7.96554 12.6296V10.2761C7.96554 10.0762 7.8034 9.91406 7.60345 9.91406H4.70693Z" fill="#F5F5F5"/>
<path d="M6.15519 11.7244H4.34485V10.2761C4.34485 10.0762 4.50698 9.91406 4.70693 9.91406H6.15519V11.7244Z" fill="#C8414B"/>
<path d="M6.15527 11.7236H7.96562V12.6288C7.96562 13.1287 7.56038 13.534 7.06045 13.534C6.56051 13.534 6.15527 13.1287 6.15527 12.6288V11.7236Z" fill="#C8414B"/>
<path d="M4.34485 11.7236H6.15519V12.6288C6.15519 13.1287 5.74996 13.534 5.25002 13.534C4.75008 13.534 4.34485 13.1287 4.34485 12.6288V11.7236Z" fill="#FAB446"/>
<path d="M5.79299 13.3489V11.7236H5.43091V13.5157C5.5656 13.4884 5.6873 13.4288 5.79299 13.3489Z" fill="#C8414B"/>
<path d="M5.06887 13.5157V11.7236H4.70679V13.3489C4.81253 13.4288 4.93422 13.4884 5.06887 13.5157Z" fill="#C8414B"/>
<path d="M5.79312 10.999H4.70691V11.3611H5.79312V10.999Z" fill="#FFB441"/>
<path d="M5.79312 10.2744H4.70691V10.6365H5.79312V10.2744Z" fill="#FAB446"/>
<path d="M5.61195 10.4902H4.88782V11.1462H5.61195V10.4902Z" fill="#FAB446"/>
<path d="M3.80152 10.2744H3.07739V13.3518H3.80152V10.2744Z" fill="#F5F5F5"/>
<path d="M3.98258 13.1729H2.89636V13.5349H3.98258V13.1729Z" fill="#FAB446"/>
<path d="M3.98258 9.91309H2.89636V10.2752H3.98258V9.91309Z" fill="#FAB446"/>
<path d="M4.16396 13.5342H2.7157V13.8963H4.16396V13.5342Z" fill="#5064AA"/>
<path d="M9.59488 13.1729H8.50867V13.5349H9.59488V13.1729Z" fill="#FAB446"/>
<path d="M9.59462 13.5342H8.14636V13.8963H9.59462V13.5342Z" fill="#5064AA"/>
<path d="M7.2414 9.55176H5.06897V9.91384H7.2414V9.55176Z" fill="#FAB446"/>
<path d="M6.33645 8.46582H5.97437V9.55203H6.33645V8.46582Z" fill="#FFB441"/>
<path d="M5.79309 9.00903C5.49359 9.00903 5.25 8.76539 5.25 8.46594C5.25 8.16644 5.49363 7.92285 5.79309 7.92285C6.09258 7.92285 6.33617 8.16648 6.33617 8.46594C6.33621 8.76539 6.09258 9.00903 5.79309 9.00903ZM5.79309 8.2849C5.69321 8.2849 5.61204 8.36602 5.61204 8.46594C5.61204 8.56581 5.69317 8.64698 5.79309 8.64698C5.893 8.64698 5.97413 8.56585 5.97413 8.46594C5.97413 8.36607 5.893 8.2849 5.79309 8.2849Z" fill="#F5F5F5"/>
<path d="M6.51721 9.00903C6.21771 9.00903 5.97412 8.76539 5.97412 8.46594C5.97412 8.16644 6.21775 7.92285 6.51721 7.92285C6.8167 7.92285 7.06029 8.16648 7.06029 8.46594C7.06029 8.76539 6.81666 9.00903 6.51721 9.00903ZM6.51721 8.2849C6.41733 8.2849 6.33617 8.36602 6.33617 8.46594C6.33617 8.56581 6.41729 8.64698 6.51721 8.64698C6.61708 8.64698 6.69825 8.56585 6.69825 8.46594C6.69821 8.36607 6.61708 8.2849 6.51721 8.2849Z" fill="#F5F5F5"/>
<path d="M7.24133 9.37133C6.94183 9.37133 6.69824 9.1277 6.69824 8.82824C6.69824 8.52875 6.94187 8.28516 7.24133 8.28516C7.54082 8.28516 7.78442 8.52879 7.78442 8.82824C7.78442 9.1277 7.54078 9.37133 7.24133 9.37133ZM7.24133 8.6472C7.14146 8.6472 7.06029 8.72833 7.06029 8.82824C7.06029 8.92812 7.14141 9.00929 7.24133 9.00929C7.3412 9.00929 7.42237 8.92816 7.42237 8.82824C7.42237 8.72833 7.3412 8.6472 7.24133 8.6472Z" fill="#F5F5F5"/>
<path d="M5.06897 9.37133C4.76947 9.37133 4.52588 9.1277 4.52588 8.82824C4.52588 8.52875 4.76951 8.28516 5.06897 8.28516C5.36846 8.28516 5.61205 8.52879 5.61205 8.82824C5.61209 9.1277 5.36846 9.37133 5.06897 9.37133ZM5.06897 8.6472C4.96909 8.6472 4.88792 8.72833 4.88792 8.82824C4.88792 8.92812 4.96905 9.00929 5.06897 9.00929C5.16888 9.00929 5.25001 8.92812 5.25001 8.8282C5.25001 8.72833 5.16888 8.6472 5.06897 8.6472Z" fill="#F5F5F5"/>
<path d="M7.24138 12.448V12.629C7.24138 12.7289 7.16017 12.8101 7.06034 12.8101C6.96051 12.8101 6.8793 12.7289 6.8793 12.629V12.448H7.24138ZM7.60343 12.0859H6.51721V12.629C6.51721 12.9285 6.76084 13.1721 7.0603 13.1721C7.35979 13.1721 7.60339 12.9285 7.60339 12.629V12.0859H7.60343Z" fill="#FAB446"/>
<path d="M7.06033 11.3616C6.86038 11.3616 6.69824 11.1995 6.69824 10.9996V10.6375C6.69824 10.4375 6.86038 10.2754 7.06033 10.2754C7.26028 10.2754 7.42241 10.4375 7.42241 10.6375V10.9996C7.42241 11.1995 7.26028 11.3616 7.06033 11.3616Z" fill="#FFA0D2"/>
<path d="M6.15515 12.2668C6.45509 12.2668 6.69824 12.0237 6.69824 11.7238C6.69824 11.4238 6.45509 11.1807 6.15515 11.1807C5.85521 11.1807 5.61206 11.4238 5.61206 11.7238C5.61206 12.0237 5.85521 12.2668 6.15515 12.2668Z" fill="#5064AA"/>
<path d="M6.33645 7.74121H5.97437V8.82743H6.33645V7.74121Z" fill="#FAB446"/>
<path d="M5.06887 9.55301L4.70679 9.19093L4.91888 8.97883C5.24672 8.651 5.69141 8.4668 6.15509 8.4668C6.61877 8.4668 7.06342 8.651 7.3913 8.97883L7.6034 9.19093L7.24131 9.55301H5.06887Z" fill="#C8414B"/>
<path d="M6.15529 9.37088C6.25527 9.37088 6.33633 9.28982 6.33633 9.18983C6.33633 9.08984 6.25527 9.00879 6.15529 9.00879C6.0553 9.00879 5.97424 9.08984 5.97424 9.18983C5.97424 9.28982 6.0553 9.37088 6.15529 9.37088Z" fill="#FFD250"/>
<path d="M5.4308 9.37088C5.53079 9.37088 5.61184 9.28982 5.61184 9.18983C5.61184 9.08984 5.53079 9.00879 5.4308 9.00879C5.33081 9.00879 5.24976 9.08984 5.24976 9.18983C5.24976 9.28982 5.33081 9.37088 5.4308 9.37088Z" fill="#FFD250"/>
<path d="M6.87904 9.37088C6.97903 9.37088 7.06008 9.28982 7.06008 9.18983C7.06008 9.08984 6.97903 9.00879 6.87904 9.00879C6.77905 9.00879 6.698 9.08984 6.698 9.18983C6.698 9.28982 6.77905 9.37088 6.87904 9.37088Z" fill="#FFD250"/>
<path d="M4.70679 10.999H2.89636V11.3611H4.70679V10.999Z" fill="#C8414B"/>
<path d="M2.89648 12.4478L3.98266 12.0857V11.7236L2.89648 12.0857V12.4478Z" fill="#C8414B"/>
</svg>
