<svg width="181" height="72" viewBox="0 0 181 72" fill="none" xmlns="http://www.w3.org/2000/svg">
<path fill-rule="evenodd" clip-rule="evenodd" d="M44.0502 63.4584C44.0502 63.4584 44.5211 66.9548 47.0011 65.9312C49.2079 65.0317 50.6217 65.681 50.6217 65.681C47.3976 64.1077 43.405 61.9098 42.2399 61.5107C42.2399 61.5107 42.2399 62.8092 44.0502 63.4584ZM133.08 65.9312C135.585 66.9548 136.056 63.4584 136.056 63.4584C137.867 62.8092 137.867 61.5107 137.867 61.5107C136.702 61.9098 132.684 64.1077 129.46 65.681C129.46 65.681 130.873 65.0317 133.08 65.9312ZM94.2438 64.4327C93.8472 64.3323 93.4008 64.4081 93.1031 64.6573C92.8554 64.8318 92.7311 65.1066 92.7311 65.4317C92.7311 65.8307 93.0541 66.1302 93.4262 66.1302C93.8227 66.1302 94.1449 65.8307 94.1449 65.4317C94.1449 65.407 94.1449 65.3815 94.1449 65.3568C94.418 65.5066 94.6412 65.8061 94.6657 66.1056C94.7156 66.48 94.6158 66.8552 94.418 67.1045C94.1702 67.3794 93.8227 67.5291 93.3264 67.5538C92.7066 67.5794 92.1612 67.3547 91.7148 66.8799C91.0451 66.1805 90.5987 65.207 90.3755 63.9077C90.301 63.3589 90.301 62.8841 90.2765 62.3344V62.2595C90.2765 62.2348 90.301 62.1846 90.301 62.1097C90.301 61.8349 90.301 61.5609 90.301 61.361C90.6731 61.2359 90.9462 60.8861 90.9462 60.4615C90.9707 59.9876 90.6241 59.6123 90.1767 59.5128C90.723 58.3887 91.7892 56.8154 92.8799 56.2913C93.1285 56.1909 93.0541 55.9918 92.781 56.0164C92.2103 56.0411 91.6159 56.1662 91.0206 56.6657C91.4172 55.0668 90.9462 54.2678 90.3755 53.6688C90.3255 53.5939 90.2266 53.5692 90.1522 53.5437C90.3256 53.4944 90.4499 53.3437 90.4499 53.1693C90.4499 52.9447 90.2765 52.7949 90.0279 52.7949C89.8301 52.7949 89.6559 52.9447 89.6559 53.1693C89.6559 53.3437 89.7557 53.4944 89.9045 53.5437C89.8301 53.5692 89.7312 53.5939 89.6813 53.6688C89.086 54.2678 88.5897 55.0668 89.0116 56.6657C88.4164 56.1662 87.8456 56.0411 87.2757 56.0164C87.0026 55.9918 86.9282 56.1909 87.1514 56.3159C88.3174 56.8903 89.3092 58.4134 89.8301 59.5128C89.3836 59.5877 89.0361 59.9876 89.0361 60.4615C89.0361 60.8861 89.3338 61.2605 89.7312 61.3856C89.8047 63.1589 89.2348 65.7559 88.1432 66.8799C87.6977 67.3547 87.1514 67.5794 86.5316 67.5538C86.0353 67.5291 85.6887 67.4049 85.44 67.1045C85.2422 66.8552 85.1433 66.48 85.1923 66.1056C85.2168 65.8061 85.4654 65.4317 85.7132 65.3313C85.7132 65.3568 85.7132 65.407 85.7132 65.4317C85.7132 65.8307 86.0353 66.1558 86.4327 66.1558C86.6061 66.1558 86.8048 66.0809 86.9282 65.9312C87.077 65.8061 87.1269 65.6316 87.1269 65.4317C87.1269 65.082 87.0026 64.7824 86.7549 64.5825C86.4818 64.3578 86.0852 64.283 85.6887 64.3825C84.9446 64.5323 84.3493 65.3313 84.2749 65.9558C84.2005 66.5302 84.3738 67.1045 84.7713 67.5538C85.2168 68.0542 85.8865 68.3537 86.6061 68.3537C87.3746 68.3537 87.9944 68.0788 88.5652 67.5045C89.1849 66.8306 89.5815 65.8307 89.8047 65.0071C89.557 66.6306 88.9617 70.6264 88.9617 71.051C88.9617 71.5752 89.3836 71.9998 89.9045 71.9998C90.4744 71.9998 90.8963 71.5752 90.8963 71.051C90.8963 70.6264 90.2765 66.5804 90.0034 64.9824C90.2765 65.7814 90.6486 66.6553 91.2683 67.3292C91.9135 67.9784 92.6821 68.3537 93.4008 68.3537C94.1449 68.3537 94.7156 67.9537 95.0132 67.7044C95.6829 67.1045 95.633 66.3055 95.5586 65.7312C95.4597 65.1568 94.9134 64.5825 94.2438 64.4327ZM108.455 63.9332C107.413 63.2091 106.371 62.4348 105.33 61.5609C104.833 61.161 104.065 60.5866 103.594 60.2122C101.461 58.5887 99.6256 57.5395 98.0876 56.9907C98.3861 56.6155 98.7581 56.3159 99.2291 56.0913C100.891 55.2923 103.346 55.7918 105.478 57.1898C105.826 57.4145 106.272 57.7642 106.768 58.1139C108.232 59.1877 110.091 60.7108 112.224 61.96C111.505 62.7088 110.414 63.4091 108.801 63.8584C108.678 63.883 108.578 63.9077 108.455 63.9332ZM98.8071 61.8604C98.0876 61.2359 97.2455 60.2122 97.3689 58.8882C97.4188 58.439 97.5422 58.039 97.691 57.6646C99.4523 58.0144 101.486 59.1384 103.594 60.9364C104.809 61.9855 106.049 63.084 107.339 64.1323C104.312 64.4574 100.816 63.5835 98.8071 61.8604ZM146.075 60.7108C144.116 55.2668 139.628 58.5887 139.628 58.5887C138.065 56.3662 133.428 61.8604 129.534 64.1323C121.177 69.0531 115.051 68.1537 109.272 64.4574C110.81 63.883 111.877 63.0338 112.621 62.1846C115.324 63.7086 118.349 65.0071 121.722 64.0081C123.607 63.4584 124.574 62.285 124.971 61.1363C125.268 60.2871 125.244 59.0882 124.872 58.2637C124.376 57.1652 123.285 56.641 122.243 56.7652C121.35 56.8656 120.656 57.5395 120.457 58.5385C120.334 59.1877 120.507 59.8123 121.078 60.2122C121.276 60.3365 121.424 60.4113 121.573 60.4369C121.648 60.4615 121.722 60.4862 121.822 60.4862C122.317 60.4862 122.739 60.0616 122.739 59.563C122.739 59.038 122.317 58.6389 121.822 58.6389C121.648 58.6389 121.499 58.6883 121.35 58.7631C121.301 58.6389 121.326 58.4636 121.4 58.239C121.971 56.915 123.929 57.44 124.351 58.6883C124.624 59.3877 124.773 59.9876 124.351 60.9364C124.004 61.5856 123.285 62.3846 121.698 62.9087C118.92 63.7579 115.869 62.9087 113.117 61.5354C113.34 61.1857 113.514 60.8615 113.662 60.5866C114.332 59.0133 114.159 57.5651 113.787 56.8154C113.216 55.6667 111.902 55.317 111.058 55.6914C110.637 55.8913 110.265 56.2913 110.314 56.8903V56.915C110.314 57.0647 110.339 57.1898 110.388 57.3149C110.414 57.3405 110.414 57.3651 110.414 57.3898C110.438 57.4647 110.488 57.4893 110.537 57.5149C110.711 57.7395 110.959 57.8646 111.232 57.8646C111.728 57.8646 112.15 57.4145 112.15 56.915C112.15 56.7908 112.125 56.6657 112.075 56.5661C112.373 56.5661 112.695 56.7159 113.166 57.2154C113.662 57.8144 113.86 59.0626 113.29 60.4113C113.141 60.7108 112.968 61.0112 112.745 61.3354C110.488 60.1867 108.554 58.7385 107.09 57.6893C106.57 57.2894 106.049 56.9907 105.702 56.7405C102.874 54.7673 100.94 54.3436 99.0058 55.0668C98.2118 55.3672 97.4432 55.9662 96.8979 56.6657C95.0876 56.3159 93.7237 56.7908 92.8063 57.9641C91.9134 59.0626 91.6403 60.7108 92.3844 61.96C93.0042 62.9845 94.0205 63.7579 95.2364 63.9835C95.3598 64.0081 95.4596 63.9332 95.4841 63.8082C95.4841 63.7086 95.4343 63.5835 95.3108 63.5835C94.2437 63.3835 93.3762 62.6594 93.0541 61.6605C92.731 60.6615 93.0042 59.5877 93.7981 58.7138C94.4923 57.9897 95.3598 57.6144 96.4015 57.5395C96.3525 57.6893 96.3026 57.8391 96.2527 57.9641C95.8807 59.4626 96.7736 61.2359 98.5094 62.4841C99.9232 63.4831 101.461 64.8318 101.238 65.9558C101.039 67.0799 101.56 66.7804 102.155 66.3804C102.775 65.9814 103.073 65.2564 102.502 64.6573C104.04 66.0809 106.346 66.8306 107.239 65.0317L107.065 65.0071C107.437 64.9569 107.834 64.882 108.206 64.7824C113.34 68.6779 119.515 71.1506 129.361 65.2564C137.396 60.4369 143.298 57.9139 145.753 61.0359C145.803 61.0861 145.951 61.1108 146.026 61.0861C146.101 61.0606 146.125 60.9866 146.125 60.9108C146.125 60.8615 146.101 60.7619 146.075 60.7108H146.075ZM81.2741 61.8604C79.2905 63.5835 75.7688 64.4574 72.7426 64.1323C74.0321 63.084 75.2725 61.9855 76.5129 60.9364C78.5954 59.1384 80.6543 58.0144 82.3902 57.6646C82.5635 58.039 82.6625 58.439 82.7123 58.8882C82.8612 60.2122 82.0182 61.2359 81.2741 61.8604ZM71.6274 63.9332C71.5276 63.9077 71.4041 63.883 71.3044 63.8584C69.6674 63.4091 68.6012 62.7088 67.8825 61.96C70.0149 60.7108 71.8497 59.1877 73.3134 58.1139C73.8342 57.7642 74.2553 57.4145 74.6028 57.1898C76.7361 55.7918 79.1907 55.2923 80.8775 56.0913C81.324 56.3159 81.696 56.6155 81.9937 56.9907C80.4556 57.5395 78.6208 58.5887 76.5129 60.2122C76.0411 60.5866 75.248 61.161 74.7761 61.5609C73.7353 62.4348 72.6936 63.2091 71.6274 63.9332ZM83.7042 57.5395C84.7214 57.6144 85.6142 57.9897 86.2839 58.7138C87.1015 59.5877 87.3746 60.6615 87.0271 61.6605C86.705 62.6594 85.8375 63.3835 84.7713 63.5835C84.6715 63.5835 84.5971 63.7086 84.6224 63.8082C84.6224 63.9332 84.7459 64.0081 84.8448 63.9835C86.0607 63.7579 87.1015 62.9845 87.6977 61.96C88.4409 60.7108 88.1686 59.0626 87.3002 57.9641C86.3574 56.7908 85.019 56.3159 83.1833 56.6657C82.6625 55.9662 81.8694 55.3672 81.0754 55.0668C79.1417 54.3436 77.2071 54.7673 74.3796 56.7405C74.0321 56.9907 73.5112 57.2894 73.0157 57.6893C71.553 58.7385 69.593 60.1867 67.3616 61.3354C67.1139 61.0112 66.9397 60.7108 66.8163 60.4113C66.221 59.0626 66.4188 57.8144 66.9397 57.2154C67.3861 56.7159 67.7337 56.5661 68.0059 56.5661C67.9814 56.6657 67.9569 56.7908 67.9569 56.915C67.9569 57.4145 68.3534 57.8646 68.8743 57.8646C69.1474 57.8646 69.3951 57.7395 69.5685 57.5149C69.593 57.4893 69.6429 57.4647 69.6674 57.3898C69.6674 57.3651 69.6927 57.3405 69.6927 57.3149C69.7427 57.1898 69.7917 57.0647 69.7917 56.915L69.7671 56.8903C69.8162 56.2913 69.4695 55.8913 69.0476 55.6914C68.1801 55.317 66.8898 55.6667 66.2954 56.8154C65.9479 57.5651 65.7491 59.0133 66.4442 60.5866C66.5676 60.8615 66.7418 61.1857 66.9896 61.5354C64.2365 62.9087 61.1866 63.7579 58.409 62.9087C56.7966 62.3846 56.077 61.5856 55.7304 60.9364C55.3338 59.9876 55.4826 59.3877 55.7304 58.6883C56.1768 57.44 58.1114 56.915 58.6813 58.239C58.7811 58.4636 58.7811 58.6389 58.7312 58.7631C58.6069 58.6883 58.4335 58.6389 58.2847 58.6389C57.7639 58.6389 57.3673 59.038 57.3673 59.563C57.3673 60.0616 57.7639 60.4862 58.2847 60.4862C58.3591 60.4862 58.4335 60.4615 58.5324 60.4369C58.6567 60.4113 58.8301 60.3365 59.0288 60.2122C59.5741 59.8123 59.7475 59.1877 59.624 58.5385C59.4253 57.5395 58.7557 56.8656 57.8383 56.7652C56.7966 56.641 55.7303 57.1652 55.2095 58.2637C54.8374 59.0882 54.8129 60.2871 55.1106 61.1363C55.5316 62.285 56.4744 63.4584 58.3836 64.0081C61.732 65.0071 64.7827 63.7086 67.4859 62.1846C68.2045 63.0338 69.2953 63.883 70.8333 64.4574C65.0549 68.1537 58.9045 69.0531 50.5717 64.1323C46.6789 61.8604 42.0411 56.3662 40.454 58.5887C40.454 58.5887 35.9896 55.2668 34.006 60.7108C33.9814 60.7619 33.9814 60.8615 33.9814 60.9108C33.9814 60.9866 33.9814 61.0606 34.055 61.0861C34.1303 61.1108 34.3036 61.0861 34.3281 61.0359C36.7835 57.9139 42.6854 60.4369 50.7459 65.2564C60.566 71.1506 66.7663 68.6779 71.8995 64.7824C72.2716 64.882 72.6436 64.9569 73.0157 65.0071L72.8668 65.0317C73.7597 66.8306 76.0655 66.0809 77.6035 64.6573C77.0337 65.2564 77.3304 65.9814 77.9257 66.3804C78.5209 66.7804 79.0418 67.0799 78.844 65.9558C78.6452 64.8318 80.1833 63.4831 81.5962 62.4841C83.3321 61.2359 84.2004 59.4626 83.8284 57.9641C83.8039 57.8391 83.754 57.6893 83.7041 57.5395" fill="#28282C"/>
<path fill-rule="evenodd" clip-rule="evenodd" d="M44.0502 8.54049C44.0502 8.54049 44.5211 5.01947 47.0011 6.06864C49.2079 6.96717 50.6217 6.31794 50.6217 6.31794C47.3976 7.89126 43.405 10.0891 42.2399 10.4891C42.2399 10.4891 42.2399 9.19061 44.0502 8.54049ZM133.08 6.06864C135.585 5.01947 136.056 8.54049 136.056 8.54049C137.867 9.19061 137.867 10.4891 137.867 10.4891C136.702 10.0891 132.684 7.89126 129.46 6.31794C129.46 6.31794 130.873 6.96717 133.08 6.06864ZM94.2438 7.56708C93.8472 7.66662 93.4008 7.59174 93.1031 7.34156C92.8554 7.14248 92.7311 6.86763 92.7311 6.56812C92.7311 6.16818 93.0541 5.844 93.4262 5.844C93.8227 5.844 94.1449 6.16818 94.1449 6.56812C94.1449 6.59278 94.1449 6.61833 94.1449 6.643C94.418 6.46769 94.6412 6.19373 94.6657 5.89334C94.7156 5.51895 94.6158 5.14456 94.418 4.89438C94.1702 4.59486 93.8227 4.44511 93.3264 4.42044C92.7066 4.39578 92.1612 4.62041 91.7148 5.11901C91.0451 5.79379 90.5987 6.79275 90.3755 8.09122C90.301 8.61625 90.301 9.09019 90.2765 9.63988V9.71476C90.2765 9.76409 90.301 9.81518 90.301 9.88918C90.301 10.164 90.301 10.4142 90.301 10.6142C90.6731 10.763 90.9462 11.1128 90.9462 11.5374C90.9707 12.0122 90.6241 12.3866 90.1767 12.4623C90.723 13.5855 91.7892 15.1835 92.8799 15.6839C93.1285 15.8081 93.0541 15.9834 92.781 15.9834C92.2103 15.9578 91.6159 15.8336 91.0206 15.3341C91.4172 16.9321 90.9462 17.7064 90.3755 18.331C90.3255 18.3803 90.2266 18.4305 90.1522 18.4561C90.3256 18.4808 90.4499 18.6305 90.4499 18.8305C90.4499 19.0296 90.2765 19.2049 90.0279 19.2049C89.8301 19.2049 89.6559 19.0296 89.6559 18.8305C89.6559 18.6552 89.7557 18.5054 89.9045 18.4561C89.8301 18.4305 89.7312 18.4059 89.6813 18.331C89.086 17.7311 88.5897 16.9321 89.0116 15.3341C88.4164 15.8336 87.8456 15.9578 87.2757 15.9834C87.0026 15.9834 86.9282 15.8081 87.1514 15.6839C88.3174 15.0839 89.3092 13.5855 89.8301 12.4623C89.3836 12.3866 89.0361 12.0122 89.0361 11.5374C89.0361 11.0881 89.3338 10.7384 89.7312 10.6142C89.8047 8.81534 89.2348 6.21839 88.1432 5.11901C87.6977 4.62041 87.1514 4.39578 86.5316 4.42044C86.0353 4.44511 85.6887 4.59486 85.44 4.89438C85.2422 5.14456 85.1433 5.51895 85.1923 5.89334C85.2168 6.19373 85.4654 6.56812 85.7132 6.66766C85.7132 6.643 85.7132 6.59278 85.7132 6.54257C85.7132 6.16818 86.0353 5.844 86.4327 5.844C86.6061 5.844 86.8048 5.91888 86.9282 6.04397C87.077 6.19373 87.1269 6.36815 87.1269 6.54257C87.1269 6.91784 87.0026 7.21735 86.7549 7.41732C86.4818 7.61729 86.0852 7.69217 85.6887 7.61729C84.9446 7.46665 84.3493 6.66766 84.2749 6.04397C84.2005 5.44407 84.3738 4.89438 84.7713 4.42044C85.2168 3.92096 85.8865 3.64612 86.6061 3.64612C87.3746 3.64612 87.9944 3.92096 88.5652 4.49532C89.1849 5.14456 89.5815 6.14352 89.8047 6.96717C89.557 5.34452 88.9617 1.37335 88.9617 0.948748C88.9617 0.424602 89.3836 0 89.9045 0C90.4744 0 90.8963 0.424602 90.8963 0.948748C90.8963 1.37335 90.2765 5.4194 90.0034 7.01739C90.2765 6.2184 90.6486 5.31898 91.2683 4.66974C91.9135 3.99584 92.6821 3.64612 93.4008 3.64612C94.1449 3.64612 94.7156 4.04517 95.0132 4.29535C95.6829 4.86971 95.633 5.69337 95.5586 6.24306C95.4597 6.84297 94.9134 7.39266 94.2438 7.56708ZM108.455 8.06656C107.413 8.76601 106.371 9.565 105.33 10.4389C104.833 10.8388 104.065 11.4132 103.594 11.762C101.461 13.3855 99.6256 14.4603 98.0876 15.0091C98.3861 15.3835 98.7581 15.6839 99.2291 15.9085C100.891 16.7075 103.346 16.208 105.478 14.8091C105.826 14.5845 106.272 14.2347 106.768 13.8604C108.232 12.8112 110.091 11.2881 112.224 10.0398C111.505 9.29015 110.414 8.5907 108.801 8.14144C108.678 8.11589 108.578 8.09122 108.455 8.06656ZM98.8071 10.1138C98.0876 10.763 97.2455 11.7876 97.3689 13.1116C97.4188 13.5608 97.5422 13.9599 97.691 14.3096C99.4523 13.9854 101.486 12.8614 103.594 11.0388C104.809 10.0143 106.049 8.89022 107.339 7.86659C104.312 7.51687 100.816 8.41628 98.8071 10.1138ZM146.075 11.2634C144.116 16.7321 139.628 13.4111 139.628 13.4111C138.065 15.6336 133.428 10.1394 129.534 7.84193C121.177 2.94667 115.051 3.84609 109.272 7.51687C110.81 8.09122 111.877 8.96509 112.621 9.81518C115.324 8.29119 118.349 6.96717 121.722 7.96613C123.607 8.54049 124.574 9.71476 124.971 10.8388C125.268 11.688 125.244 12.9116 124.872 13.7106C124.376 14.8346 123.285 15.3588 122.243 15.2337C121.35 15.1095 120.656 14.4603 120.457 13.4613C120.334 12.8112 120.507 12.1866 121.078 11.7876C121.276 11.6378 121.424 11.5876 121.573 11.5629C121.648 11.5374 121.722 11.5127 121.822 11.5127C122.317 11.5127 122.739 11.9373 122.739 12.4368C122.739 12.9363 122.317 13.3609 121.822 13.3609C121.648 13.3609 121.499 13.3107 121.35 13.2358C121.301 13.3609 121.326 13.5353 121.4 13.7608C121.971 15.0593 123.929 14.5598 124.351 13.3107C124.624 12.6121 124.773 12.0122 124.351 11.0388C124.004 10.3887 123.285 9.58967 121.698 9.09019C118.92 8.21632 115.869 9.09019 113.117 10.4635C113.34 10.7886 113.514 11.1383 113.662 11.4132C114.332 12.9609 114.159 14.3845 113.787 15.1588C113.216 16.3075 111.902 16.6828 111.058 16.2829C110.637 16.1085 110.265 15.7085 110.314 15.1095C110.314 15.0839 110.314 15.0839 110.314 15.0839C110.314 14.9342 110.339 14.8091 110.388 14.6849C110.414 14.6593 110.414 14.6347 110.414 14.5845C110.438 14.5343 110.488 14.5096 110.537 14.4849C110.711 14.2603 110.959 14.1352 111.232 14.1352C111.728 14.1352 112.15 14.5598 112.15 15.0839C112.15 15.209 112.125 15.3086 112.075 15.4337C112.373 15.4337 112.695 15.2592 113.166 14.7598C113.662 14.1845 113.86 12.9116 113.29 11.5876C113.141 11.2881 112.968 10.963 112.745 10.6388C110.488 11.7876 108.554 13.2358 107.09 14.285C106.57 14.6849 106.049 15.0091 105.702 15.2337C102.874 17.2316 100.94 17.6316 99.0058 16.9321C98.2118 16.6326 97.4432 16.0336 96.8979 15.3341C95.0876 15.6839 93.7237 15.1835 92.8063 14.0357C91.9134 12.9363 91.6403 11.2881 92.3844 10.0143C93.0042 8.99064 94.0205 8.21632 95.2364 8.01635C95.3598 7.99168 95.4596 8.06656 95.4841 8.19165C95.4841 8.29119 95.4343 8.39162 95.3108 8.41628C94.2437 8.61625 93.3762 9.34037 93.0541 10.3393C92.731 11.3383 93.0042 12.4121 93.7981 13.2613C94.4923 14.0101 95.3598 14.3845 96.4015 14.4603C96.3525 14.285 96.3026 14.1599 96.2527 14.0357C95.8807 12.5117 96.7736 10.7384 98.5094 9.51479C99.9232 8.51583 101.461 7.14248 101.238 6.01843C101.039 4.89438 101.56 5.21943 102.155 5.61937C102.775 6.01843 103.073 6.71787 102.502 7.34156C104.04 5.91888 106.346 5.16922 107.239 6.96717L107.065 6.99272C107.437 7.04293 107.834 7.11693 108.206 7.19269C113.34 3.32106 119.515 0.823657 129.361 6.74254C137.396 11.5629 143.298 14.085 145.753 10.963C145.803 10.8881 145.951 10.8635 146.026 10.8881C146.101 10.9137 146.125 11.0132 146.125 11.0881C146.125 11.1383 146.101 11.2379 146.075 11.2634H146.075ZM81.2741 10.1138C79.2905 8.41628 75.7688 7.51687 72.7426 7.86659C74.0321 8.89022 75.2725 10.0143 76.5129 11.0388C78.5954 12.8614 80.6543 13.9854 82.3902 14.3096C82.5635 13.9599 82.6625 13.5608 82.7123 13.1116C82.8612 11.7876 82.0182 10.763 81.2741 10.1138ZM71.6274 8.06656C71.5276 8.09122 71.4041 8.11589 71.3044 8.14144C69.6674 8.5907 68.6012 9.29015 67.8825 10.0398C70.0149 11.2881 71.8497 12.8112 73.3134 13.8604C73.8342 14.2347 74.2553 14.5845 74.6028 14.8091C76.7361 16.208 79.1907 16.7075 80.8775 15.9085C81.324 15.6839 81.696 15.3835 81.9937 15.0091C80.4556 14.4603 78.6208 13.3855 76.5129 11.762C76.0411 11.4132 75.248 10.8388 74.7761 10.4389C73.7353 9.565 72.6936 8.76601 71.6274 8.06656ZM83.7042 14.4603C84.7214 14.3845 85.6142 14.0101 86.2839 13.2613C87.1015 12.4121 87.3746 11.3383 87.0271 10.3393C86.705 9.34037 85.8375 8.61625 84.7713 8.41628C84.6715 8.39162 84.5971 8.29119 84.6224 8.19165C84.6224 8.06656 84.7459 7.99168 84.8448 8.01635C86.0607 8.21632 87.1015 8.99064 87.6977 10.0143C88.4409 11.2881 88.1686 12.9363 87.3002 14.0357C86.3574 15.1835 85.019 15.6839 83.1833 15.3341C82.6625 16.0336 81.8694 16.6326 81.0754 16.9321C79.1417 17.6316 77.2071 17.2316 74.3796 15.2337C74.0321 15.0091 73.5112 14.6849 73.0157 14.285C71.553 13.2358 69.593 11.7876 67.3616 10.6388C67.1139 10.963 66.9397 11.2881 66.8163 11.5876C66.221 12.9116 66.4188 14.1845 66.9397 14.7598C67.3861 15.2592 67.7337 15.4337 68.0059 15.4337C67.9814 15.3086 67.9569 15.209 67.9569 15.0839C67.9569 14.5598 68.3534 14.1352 68.8743 14.1352C69.1474 14.1352 69.3951 14.2603 69.5685 14.4849C69.593 14.5096 69.6429 14.5343 69.6674 14.5845C69.6674 14.6347 69.6927 14.6593 69.6927 14.6849C69.7427 14.8091 69.7917 14.9342 69.7917 15.0839C69.7917 15.0839 69.7671 15.0839 69.7671 15.1095C69.8162 15.7085 69.4695 16.1085 69.0476 16.2829C68.1801 16.6828 66.8898 16.3075 66.2954 15.1588C65.9479 14.3845 65.7491 12.9609 66.4442 11.4132C66.5676 11.1383 66.7418 10.7886 66.9896 10.4635C64.2365 9.09019 61.1866 8.21632 58.409 9.09019C56.7966 9.58967 56.077 10.3887 55.7304 11.0388C55.3338 12.0122 55.4826 12.6121 55.7304 13.3107C56.1768 14.5598 58.1114 15.0593 58.6813 13.7608C58.7811 13.5353 58.7811 13.3609 58.7312 13.2358C58.6069 13.3107 58.4335 13.3609 58.2847 13.3609C57.7639 13.3609 57.3673 12.9363 57.3673 12.4368C57.3673 11.9373 57.7639 11.5127 58.2847 11.5127C58.3591 11.5127 58.4335 11.5374 58.5324 11.5629C58.6567 11.5876 58.8301 11.6378 59.0288 11.7876C59.5741 12.1866 59.7475 12.8112 59.624 13.4613C59.4253 14.4603 58.7557 15.1095 57.8383 15.2337C56.7966 15.3588 55.7303 14.8346 55.2095 13.7106C54.8374 12.9116 54.8129 11.688 55.1106 10.8388C55.5316 9.71476 56.4744 8.54049 58.3836 7.96613C61.732 6.96717 64.7827 8.29119 67.4859 9.81518C68.2045 8.96509 69.2953 8.09122 70.8333 7.51687C65.0549 3.84609 58.9045 2.94667 50.5717 7.84193C46.6789 10.1394 42.0411 15.6336 40.454 13.4111C40.454 13.4111 35.9896 16.7321 34.006 11.2634C33.9814 11.2379 33.9814 11.1383 33.9814 11.0881C33.9814 11.0132 33.9814 10.9137 34.055 10.8881C34.1303 10.8635 34.3036 10.8881 34.3281 10.963C36.7835 14.085 42.6854 11.5629 50.7459 6.74254C60.566 0.823657 66.7663 3.32106 71.8995 7.19269C72.2716 7.11693 72.6436 7.04293 73.0157 6.99272L72.8668 6.96717C73.7597 5.16922 76.0655 5.91888 77.6035 7.34156C77.0337 6.71787 77.3304 6.01843 77.9257 5.61937C78.5209 5.21943 79.0418 4.89438 78.844 6.01843C78.6452 7.14248 80.1833 8.51583 81.5962 9.51479C83.3321 10.7384 84.2004 12.5117 83.8284 14.0357C83.8039 14.1599 83.754 14.285 83.7041 14.4603" fill="#28282C"/>
<path fill-rule="evenodd" clip-rule="evenodd" d="M0 22.4512H7.33435L12.8845 39.7083H12.9941L18.5442 22.4512H25.4829V23.6756C24.9977 23.7752 24.6238 23.9998 24.3595 24.3249C24.0951 24.6491 23.9847 25.0992 24.0073 25.648V43.4796C24.0073 44.0292 24.1169 44.4538 24.3812 44.8027C24.6238 45.1277 24.9977 45.3277 25.4829 45.4026V46.6517H17.906V45.4026C18.3903 45.3277 18.765 45.1277 19.0294 44.8027C19.2937 44.5041 19.4258 44.0539 19.4258 43.4796V25.7484H19.2051L12.5098 46.6517H10.3734L3.50158 25.1988H3.36942V43.1298C3.36942 43.8795 3.52335 44.4538 3.81022 44.8282C4.09632 45.2026 4.53713 45.4026 5.08755 45.4026V46.6517H0V45.4026C0.550426 45.4026 0.991234 45.2026 1.27733 44.778C1.56343 44.379 1.69559 43.8046 1.69559 43.0805V26.5228C1.69559 25.5987 1.54166 24.8992 1.23302 24.3998C0.925151 23.9249 0.506112 23.6756 0 23.6756V22.4512ZM33.7198 46.9257C31.8695 46.9257 30.3722 46.2765 29.2488 44.978C28.1254 43.6795 27.575 41.9811 27.5967 39.9083C27.575 37.9606 28.1254 36.3124 29.2488 34.9884C30.3722 33.6397 31.8695 32.9658 33.7198 32.9658C35.504 32.9658 36.9796 33.6397 38.1248 34.9637C39.2699 36.2869 39.8429 37.9351 39.8429 39.9083C39.8204 41.9811 39.2482 43.6795 38.1022 44.978C36.9571 46.2765 35.504 46.9257 33.7198 46.9257ZM33.7198 45.5524C34.3363 45.5524 34.8207 45.3031 35.1736 44.8027C35.504 44.3288 35.658 42.7052 35.658 39.9083C35.658 37.1863 35.504 35.5883 35.1736 35.1135C34.8207 34.5893 34.3363 34.3638 33.7198 34.3638C33.059 34.3638 32.5747 34.5893 32.2442 35.1135C31.9356 35.5883 31.7591 37.1863 31.7591 39.9083C31.7591 42.7052 31.9356 44.3288 32.2442 44.8027C32.5747 45.3031 33.059 45.5524 33.7198 45.5524ZM41.6264 46.6517V45.4273C42.0229 45.3277 42.3097 45.1278 42.4854 44.8282C42.6401 44.5534 42.728 44.1041 42.728 43.5298V36.3617C42.728 35.7883 42.6401 35.3628 42.4419 35.0633C42.2436 34.7638 41.9793 34.5638 41.6264 34.4642V33.2406H46.4939V34.9637H46.56C47.0226 34.3392 47.5512 33.8643 48.1677 33.5146C48.785 33.1658 49.4458 32.9658 50.1284 32.9658C51.1632 32.9658 51.9562 33.3402 52.4848 34.089C53.0353 34.8633 53.3004 36.1873 53.3221 38.0355V43.5298C53.3221 44.179 53.41 44.6283 53.5639 44.8785C53.7404 45.1278 54.0047 45.3524 54.4012 45.503V46.6517H48.4764V45.4273C48.8503 45.3524 49.1154 45.1533 49.3137 44.8785C49.4894 44.5781 49.578 44.1288 49.578 43.5298V37.6611C49.5555 36.9361 49.4458 36.3873 49.225 36.0622C48.9833 35.7125 48.6746 35.5627 48.2346 35.5627C47.7277 35.5627 47.3094 35.7627 47.0008 36.1873C46.6704 36.5873 46.4939 37.0867 46.4939 37.6611V43.5298C46.4939 44.1288 46.5825 44.5781 46.7582 44.8785C46.9347 45.1533 47.2208 45.3524 47.5955 45.4273V46.6517H41.6264ZM61.2287 33.2406V43.5298C61.2069 44.0795 61.2948 44.5287 61.4712 44.8282C61.6695 45.1533 61.9556 45.3524 62.3078 45.4273V46.6517H56.3394V45.4273C56.7141 45.3524 57.0002 45.1533 57.1759 44.8282C57.3749 44.5287 57.4628 44.0795 57.4628 43.5298V36.3617C57.4628 35.8129 57.3749 35.3883 57.1541 35.0633C56.9341 34.7638 56.6698 34.5391 56.3394 34.4642V33.2406H61.2287ZM57.2863 26.9967C57.2863 26.4223 57.4845 25.9229 57.8593 25.4736C58.2558 25.0235 58.7183 24.7988 59.2462 24.7988C59.7313 24.7988 60.1714 25.0235 60.5679 25.4736C60.9644 25.9229 61.1626 26.4223 61.1626 26.9967C61.1626 27.5966 60.9644 28.1208 60.5896 28.5454C60.1939 28.97 59.7531 29.1699 59.2462 29.1699C58.7183 29.1699 58.2558 28.9453 57.8593 28.5207C57.4845 28.0705 57.2863 27.5711 57.2863 26.9967ZM74.0253 43.2303L74.8401 44.0539C74.0914 45.0282 73.2766 45.7523 72.3958 46.2271C71.4924 46.6764 70.5673 46.9257 69.5986 46.9257C67.9465 46.9257 66.6249 46.302 65.6337 45.0529C64.6424 43.8046 64.1363 42.1555 64.1363 40.0581C64.1363 37.9853 64.731 36.2869 65.898 34.9637C67.0657 33.6397 68.497 32.9658 70.2151 32.9658C71.3603 32.9658 72.3515 33.29 73.188 33.8899C74.0035 34.5136 74.4218 35.2632 74.4218 36.1124C74.4218 36.5873 74.2671 36.9863 74.0035 37.3114C73.7167 37.6109 73.3645 37.7606 72.9237 37.7606C72.4611 37.7606 72.0872 37.6109 71.7785 37.3114C71.4699 37.0119 71.2724 36.5873 71.1838 36.0376C71.0299 35.1884 70.8977 34.6642 70.7438 34.5391C70.589 34.3894 70.3916 34.3145 70.1265 34.3145C69.51 34.3145 69.0474 34.7135 68.7613 35.4632C68.4752 36.1873 68.3205 37.7104 68.3205 40.0581V41.6314C68.3205 42.6806 68.5187 43.5051 68.9378 44.1041C69.356 44.7287 69.9725 45.0282 70.7655 45.0282C71.2942 45.0282 71.8228 44.8538 72.3958 44.5287C72.968 44.2292 73.5184 43.7791 74.0253 43.2303ZM88.2532 44.8538V46.0272C87.9671 46.3513 87.6367 46.576 87.3063 46.7266C86.9533 46.8508 86.5794 46.9257 86.1829 46.9257C85.676 46.9257 85.236 46.7759 84.8177 46.4764C84.3987 46.1769 84.0683 45.7021 83.8039 45.0282H83.65C83.077 45.7021 82.5048 46.2016 81.9101 46.502C81.3154 46.7759 80.6328 46.9257 79.8398 46.9257C78.6946 46.9257 77.8355 46.6015 77.2851 45.9523C76.7121 45.3031 76.426 44.5287 76.426 43.5791C76.426 41.8569 77.0208 40.6078 78.1877 39.7586C79.3772 38.9094 81.0075 38.4601 83.0996 38.3852V37.4109C83.0996 36.412 82.9892 35.6376 82.7692 35.1381C82.5709 34.614 82.1744 34.3638 81.624 34.3638C81.271 34.3638 80.9632 34.4642 80.7424 34.6642C80.5006 34.8888 80.2363 35.2879 79.9276 35.8623C79.7076 36.2622 79.4876 36.537 79.2893 36.6621C79.0911 36.8119 78.8711 36.8612 78.6503 36.8612C78.3199 36.8868 78.0556 36.7863 77.8355 36.5873C77.6373 36.3617 77.5269 36.0376 77.5269 35.6376C77.5269 34.8633 77.9234 34.2141 78.7607 33.7146C79.5754 33.2151 80.6545 32.9658 81.9762 32.9658C83.5178 32.9658 84.7073 33.4397 85.5664 34.3638C86.4255 35.3381 86.8437 36.8612 86.8437 38.9842V43.3298C86.8437 43.9288 86.9316 44.3288 87.108 44.5534C87.2837 44.778 87.5489 44.8785 87.9446 44.8785C87.9888 44.8785 88.0332 44.8785 88.0767 44.8785C88.121 44.8785 88.1871 44.8785 88.2532 44.8538ZM83.0996 42.1555V39.7832C82.3066 39.7832 81.6458 40.1083 81.1171 40.7329C80.5884 41.3319 80.3241 42.1309 80.3241 43.1298C80.3241 43.7791 80.4345 44.2292 80.6771 44.5287C80.8971 44.8282 81.205 44.978 81.5797 44.978C82.0423 44.978 82.4162 44.778 82.6813 44.3288C82.9674 43.9042 83.0996 43.18 83.0996 42.1555ZM99.0231 22.4512H106.688V23.6756C106.159 23.7752 105.763 23.9998 105.543 24.3495C105.301 24.6737 105.19 25.2234 105.19 25.9731V44.8027H112.107C113.207 44.8027 114.199 44.4283 115.079 43.6293C115.939 42.8303 116.467 41.8067 116.665 40.5329H117.766V46.6517H99.0231V45.4026C99.53 45.3524 99.9264 45.1533 100.191 44.8027C100.455 44.4538 100.587 43.8795 100.609 43.1298V25.9731C100.609 25.2481 100.499 24.7239 100.257 24.3998C100.037 24.05 99.6178 23.8254 99.0231 23.6756V22.4512ZM125.695 46.9257C123.845 46.9257 122.348 46.2765 121.224 44.978C120.101 43.6795 119.551 41.9811 119.572 39.9083C119.551 37.9606 120.101 36.3124 121.224 34.9884C122.348 33.6397 123.845 32.9658 125.695 32.9658C127.48 32.9658 128.933 33.6397 130.1 34.9637C131.246 36.2869 131.819 37.9351 131.819 39.9083C131.796 41.9811 131.224 43.6795 130.079 44.978C128.933 46.2765 127.48 46.9257 125.695 46.9257ZM125.695 45.5524C126.312 45.5524 126.797 45.3031 127.127 44.8027C127.48 44.3288 127.634 42.7052 127.634 39.9083C127.634 37.1863 127.48 35.5883 127.127 35.1135C126.797 34.5893 126.312 34.3638 125.695 34.3638C125.035 34.3638 124.55 34.5893 124.22 35.1135C123.911 35.5883 123.735 37.1863 123.735 39.9083C123.735 42.7052 123.911 44.3288 124.22 44.8027C124.55 45.3031 125.035 45.5524 125.695 45.5524ZM133.603 33.2406H137.831V35.213H137.985C138.316 34.4642 138.69 33.9145 139.153 33.5402C139.593 33.1658 140.077 32.9658 140.584 32.9658C141.135 32.9658 141.553 33.1402 141.861 33.4899C142.17 33.8397 142.324 34.2889 142.324 34.8386C142.324 35.3883 142.17 35.8129 141.861 36.1371C141.553 36.4375 141.201 36.5873 140.827 36.5873C140.695 36.5873 140.584 36.5873 140.475 36.5617C140.364 36.537 140.254 36.4868 140.188 36.412C140.034 36.3617 139.88 36.2375 139.703 36.0622C139.505 35.8878 139.373 35.7883 139.262 35.7883C139.021 35.7883 138.822 35.9125 138.669 36.1627C138.514 36.412 138.448 36.7617 138.469 37.2109V43.5298C138.469 44.0795 138.558 44.5287 138.756 44.8538C138.932 45.178 139.219 45.3779 139.571 45.4273V46.6517H133.603V45.4273C133.977 45.3524 134.241 45.1533 134.439 44.8785C134.616 44.5781 134.704 44.1288 134.704 43.5298V36.3617C134.704 35.7372 134.616 35.2879 134.417 35.0139C134.219 34.7382 133.955 34.5391 133.603 34.4642V33.2406ZM154.108 39.3842H147.522V41.1072C147.522 42.4313 147.72 43.4302 148.095 44.0795C148.491 44.7534 149.13 45.0784 150.033 45.0529C150.539 45.0529 151.024 44.9031 151.486 44.6283C151.949 44.3288 152.477 43.8046 153.05 43.055L153.931 44.0292C153.359 44.978 152.654 45.6774 151.817 46.1769C150.98 46.6764 150.099 46.9257 149.174 46.9257C147.456 46.9257 146.068 46.302 144.989 45.0784C143.888 43.8548 143.36 42.2313 143.36 40.258C143.337 38.2099 143.866 36.4868 144.989 35.0879C146.091 33.6653 147.5 32.9658 149.196 32.9658C150.737 32.9658 151.949 33.615 152.83 34.8888C153.711 36.1627 154.129 37.6611 154.108 39.3842ZM150.76 38.0108V37.4611C150.76 36.4375 150.628 35.6878 150.364 35.1637C150.121 34.614 149.724 34.3638 149.174 34.3638C148.624 34.3638 148.205 34.614 147.941 35.1381C147.654 35.6376 147.522 36.412 147.522 37.4611V38.0108H150.76ZM155.914 33.1156H157.389V29.9689L161.155 28.6202V33.1156H163.622V34.4889H161.155V43.5298C161.155 44.1041 161.244 44.5287 161.442 44.8027C161.618 45.0529 161.904 45.2026 162.279 45.2026C162.455 45.2026 162.653 45.178 162.852 45.1278C163.05 45.0784 163.248 44.978 163.468 44.8538L163.865 45.8527C163.424 46.2271 162.939 46.502 162.389 46.6764C161.838 46.8262 161.287 46.9257 160.715 46.9257C159.57 46.9257 158.733 46.6015 158.182 46.0016C157.632 45.3779 157.367 44.3288 157.389 42.8805V34.4889H155.914V33.1156ZM165.472 33.1156H166.97V29.9689L170.714 28.6202V33.1156H173.181V34.4889H170.714V43.5298C170.714 44.1041 170.802 44.5287 171.001 44.8027C171.199 45.0529 171.463 45.2026 171.837 45.2026C172.014 45.2026 172.212 45.178 172.41 45.1278C172.63 45.0784 172.828 44.978 173.027 44.8538L173.423 45.8527C173.005 46.2271 172.498 46.502 171.969 46.6764C171.419 46.8262 170.846 46.9257 170.274 46.9257C169.15 46.9257 168.314 46.6015 167.763 46.0016C167.212 45.3779 166.948 44.3288 166.97 42.8805V34.4889H165.472V33.1156ZM179.921 33.2406V43.5298C179.898 44.0795 179.986 44.5287 180.163 44.8282C180.361 45.1533 180.647 45.3524 181 45.4273V46.6517H175.031V45.4273C175.406 45.3524 175.692 45.1533 175.868 44.8282C176.066 44.5287 176.154 44.0795 176.154 43.5298V36.3617C176.154 35.8129 176.066 35.3883 175.846 35.0633C175.626 34.7638 175.361 34.5391 175.031 34.4642V33.2406H179.921ZM175.979 26.9967C175.979 26.4223 176.176 25.9229 176.551 25.4736C176.947 25.0235 177.41 24.7988 177.938 24.7988C178.423 24.7988 178.864 25.0235 179.26 25.4736C179.656 25.9229 179.855 26.4223 179.855 26.9967C179.855 27.5966 179.656 28.1208 179.282 28.5454C178.885 28.97 178.445 29.1699 177.938 29.1699C177.41 29.1699 176.947 28.9453 176.551 28.5207C176.176 28.0705 175.979 27.5711 175.979 26.9967Z" fill="#28282C"/>
</svg>
